<?xml version="1.0" standalone="no"?>
<!DOCTYPE svg PUBLIC "-//W3C//DTD SVG 1.1//EN" "http://www.w3.org/Graphics/SVG/1.1/DTD/svg11.dtd">
<svg width="100%" height="100%" version="1.1" xmlns="http://www.w3.org/2000/svg">
<g  style="fill:none;stroke:#000000;" >
<g  style="" >
<path d="M0.0 0.0 L630.0 0.0 L630.0 891.0 L0.0 891.0 L0.0 0.0 "/>
</g>
<g  style="fill:none;stroke:#FF0000;stroke-width:1.0;" >
<g  style="" >
<path d="M96.0 114.0 L96.0 114.0 "/>
</g>
<g  style="" >
<path d="M96.0 114.0 L99.0 126.0 "/>
</g>
<g  style="" >
<path d="M96.0 114.0 L130.0 124.0 "/>
</g>
<g  style="" >
<path d="M96.0 114.0 L135.0 121.0 "/>
</g>
<g  style="" >
<path d="M96.0 114.0 L135.0 130.0 "/>
</g>
<g  style="" >
<path d="M99.0 126.0 L99.0 126.0 "/>
</g>
<g  style="" >
<path d="M99.0 126.0 L96.0 114.0 "/>
</g>
<g  style="" >
<path d="M99.0 126.0 L130.0 124.0 "/>
</g>
<g  style="" >
<path d="M99.0 126.0 L135.0 121.0 "/>
</g>
<g  style="" >
<path d="M99.0 126.0 L135.0 130.0 "/>
</g>
<g  style="" >
<path d="M99.0 126.0 L121.0 165.0 "/>
</g>
<g  style="" >
<path d="M130.0 124.0 L130.0 124.0 "/>
</g>
<g  style="" >
<path d="M130.0 124.0 L135.0 121.0 "/>
</g>
<g  style="" >
<path d="M130.0 124.0 L135.0 130.0 "/>
</g>
<g  style="" >
<path d="M130.0 124.0 L96.0 114.0 "/>
</g>
<g  style="" >
<path d="M130.0 124.0 L99.0 126.0 "/>
</g>
<g  style="" >
<path d="M130.0 124.0 L160.0 133.0 "/>
</g>
<g  style="" >
<path d="M135.0 121.0 L130.0 124.0 "/>
</g>
<g  style="" >
<path d="M135.0 121.0 L135.0 121.0 "/>
</g>
<g  style="" >
<path d="M135.0 121.0 L135.0 130.0 "/>
</g>
<g  style="" >
<path d="M135.0 121.0 L96.0 114.0 "/>
</g>
<g  style="" >
<path d="M135.0 121.0 L99.0 126.0 "/>
</g>
<g  style="" >
<path d="M135.0 121.0 L160.0 133.0 "/>
</g>
<g  style="" >
<path d="M89.0 205.0 L89.0 205.0 "/>
</g>
<g  style="" >
<path d="M89.0 205.0 L96.0 199.0 "/>
</g>
<g  style="" >
<path d="M89.0 205.0 L101.0 204.0 "/>
</g>
<g  style="" >
<path d="M89.0 205.0 L92.0 227.0 "/>
</g>
<g  style="" >
<path d="M89.0 205.0 L119.0 239.0 "/>
</g>
<g  style="" >
<path d="M89.0 205.0 L97.0 183.0 "/>
</g>
<g  style="" >
<path d="M92.0 227.0 L92.0 227.0 "/>
</g>
<g  style="" >
<path d="M92.0 227.0 L95.0 236.0 "/>
</g>
<g  style="" >
<path d="M92.0 227.0 L104.0 222.0 "/>
</g>
<g  style="" >
<path d="M92.0 227.0 L101.0 240.0 "/>
</g>
<g  style="" >
<path d="M92.0 227.0 L89.0 205.0 "/>
</g>
<g  style="" >
<path d="M92.0 227.0 L119.0 239.0 "/>
</g>
<g  style="" >
<path d="M119.0 239.0 L119.0 239.0 "/>
</g>
<g  style="" >
<path d="M119.0 239.0 L121.0 233.0 "/>
</g>
<g  style="" >
<path d="M119.0 239.0 L114.0 232.0 "/>
</g>
<g  style="" >
<path d="M119.0 239.0 L89.0 205.0 "/>
</g>
<g  style="" >
<path d="M119.0 239.0 L92.0 227.0 "/>
</g>
<g  style="" >
<path d="M119.0 239.0 L151.0 202.0 "/>
</g>
<g  style="" >
<path d="M151.0 202.0 L151.0 202.0 "/>
</g>
<g  style="" >
<path d="M151.0 202.0 L153.0 192.0 "/>
</g>
<g  style="" >
<path d="M151.0 202.0 L136.0 204.0 "/>
</g>
<g  style="" >
<path d="M151.0 202.0 L119.0 239.0 "/>
</g>
<g  style="" >
<path d="M151.0 202.0 L137.0 226.0 "/>
</g>
<g  style="" >
<path d="M151.0 202.0 L114.0 232.0 "/>
</g>
<g  style="" >
<path d="M160.0 133.0 L160.0 133.0 "/>
</g>
<g  style="" >
<path d="M160.0 133.0 L130.0 124.0 "/>
</g>
<g  style="" >
<path d="M160.0 133.0 L135.0 121.0 "/>
</g>
<g  style="" >
<path d="M160.0 133.0 L135.0 130.0 "/>
</g>
<g  style="" >
<path d="M160.0 133.0 L187.0 157.0 "/>
</g>
<g  style="" >
<path d="M160.0 133.0 L187.0 135.0 "/>
</g>
<g  style="" >
<path d="M135.0 130.0 L130.0 124.0 "/>
</g>
<g  style="" >
<path d="M135.0 130.0 L135.0 130.0 "/>
</g>
<g  style="" >
<path d="M135.0 130.0 L135.0 121.0 "/>
</g>
<g  style="" >
<path d="M135.0 130.0 L96.0 114.0 "/>
</g>
<g  style="" >
<path d="M135.0 130.0 L99.0 126.0 "/>
</g>
<g  style="" >
<path d="M135.0 130.0 L160.0 133.0 "/>
</g>
<g  style="" >
<path d="M97.0 183.0 L97.0 183.0 "/>
</g>
<g  style="" >
<path d="M97.0 183.0 L96.0 199.0 "/>
</g>
<g  style="" >
<path d="M97.0 183.0 L89.0 205.0 "/>
</g>
<g  style="" >
<path d="M97.0 183.0 L92.0 227.0 "/>
</g>
<g  style="" >
<path d="M97.0 183.0 L121.0 165.0 "/>
</g>
<g  style="" >
<path d="M97.0 183.0 L104.0 222.0 "/>
</g>
<g  style="" >
<path d="M95.0 236.0 L95.0 236.0 "/>
</g>
<g  style="" >
<path d="M95.0 236.0 L101.0 240.0 "/>
</g>
<g  style="" >
<path d="M95.0 236.0 L92.0 227.0 "/>
</g>
<g  style="" >
<path d="M95.0 236.0 L89.0 205.0 "/>
</g>
<g  style="" >
<path d="M95.0 236.0 L119.0 239.0 "/>
</g>
<g  style="" >
<path d="M95.0 236.0 L137.0 226.0 "/>
</g>
<g  style="" >
<path d="M137.0 226.0 L137.0 226.0 "/>
</g>
<g  style="" >
<path d="M137.0 226.0 L125.0 216.0 "/>
</g>
<g  style="" >
<path d="M137.0 226.0 L138.0 240.0 "/>
</g>
<g  style="" >
<path d="M137.0 226.0 L92.0 227.0 "/>
</g>
<g  style="" >
<path d="M137.0 226.0 L119.0 239.0 "/>
</g>
<g  style="" >
<path d="M137.0 226.0 L151.0 202.0 "/>
</g>
<g  style="" >
<path d="M187.0 157.0 L187.0 157.0 "/>
</g>
<g  style="" >
<path d="M187.0 157.0 L160.0 133.0 "/>
</g>
<g  style="" >
<path d="M187.0 157.0 L187.0 135.0 "/>
</g>
<g  style="" >
<path d="M187.0 157.0 L146.0 147.0 "/>
</g>
<g  style="" >
<path d="M187.0 157.0 L153.0 192.0 "/>
</g>
<g  style="" >
<path d="M187.0 135.0 L187.0 135.0 "/>
</g>
<g  style="" >
<path d="M146.0 147.0 L146.0 147.0 "/>
</g>
<g  style="" >
<path d="M146.0 147.0 L130.0 124.0 "/>
</g>
<g  style="" >
<path d="M146.0 147.0 L135.0 121.0 "/>
</g>
<g  style="" >
<path d="M146.0 147.0 L160.0 133.0 "/>
</g>
<g  style="" >
<path d="M146.0 147.0 L135.0 130.0 "/>
</g>
<g  style="" >
<path d="M146.0 147.0 L187.0 157.0 "/>
</g>
<g  style="" >
<path d="M114.0 232.0 L114.0 232.0 "/>
</g>
<g  style="" >
<path d="M114.0 232.0 L121.0 233.0 "/>
</g>
<g  style="" >
<path d="M114.0 232.0 L119.0 239.0 "/>
</g>
<g  style="" >
<path d="M114.0 232.0 L104.0 222.0 "/>
</g>
<g  style="" >
<path d="M114.0 232.0 L101.0 240.0 "/>
</g>
<g  style="" >
<path d="M114.0 232.0 L89.0 205.0 "/>
</g>
<g  style="" >
<path d="M131.0 258.0 L131.0 258.0 "/>
</g>
<g  style="" >
<path d="M131.0 258.0 L123.0 268.0 "/>
</g>
<g  style="" >
<path d="M131.0 258.0 L135.0 248.0 "/>
</g>
<g  style="" >
<path d="M131.0 258.0 L92.0 227.0 "/>
</g>
<g  style="" >
<path d="M131.0 258.0 L119.0 239.0 "/>
</g>
<g  style="" >
<path d="M131.0 258.0 L95.0 236.0 "/>
</g>
<g  style="" >
<path d="M151.0 237.0 L151.0 237.0 "/>
</g>
<g  style="" >
<path d="M151.0 237.0 L138.0 240.0 "/>
</g>
<g  style="" >
<path d="M151.0 237.0 L119.0 239.0 "/>
</g>
<g  style="" >
<path d="M151.0 237.0 L151.0 202.0 "/>
</g>
<g  style="" >
<path d="M151.0 237.0 L137.0 226.0 "/>
</g>
<g  style="" >
<path d="M151.0 237.0 L114.0 232.0 "/>
</g>
<g  style="" >
<path d="M153.0 192.0 L153.0 192.0 "/>
</g>
<g  style="" >
<path d="M153.0 192.0 L151.0 202.0 "/>
</g>
<g  style="" >
<path d="M153.0 192.0 L137.0 226.0 "/>
</g>
<g  style="" >
<path d="M153.0 192.0 L187.0 157.0 "/>
</g>
<g  style="" >
<path d="M153.0 192.0 L146.0 147.0 "/>
</g>
<g  style="" >
<path d="M153.0 192.0 L151.0 237.0 "/>
</g>
<g  style="" >
<path d="M121.0 165.0 L121.0 165.0 "/>
</g>
<g  style="" >
<path d="M121.0 165.0 L126.0 169.0 "/>
</g>
<g  style="" >
<path d="M121.0 165.0 L99.0 126.0 "/>
</g>
<g  style="" >
<path d="M121.0 165.0 L130.0 124.0 "/>
</g>
<g  style="" >
<path d="M121.0 165.0 L135.0 121.0 "/>
</g>
<g  style="" >
<path d="M121.0 165.0 L151.0 202.0 "/>
</g>
<g  style="" >
<path d="M96.0 199.0 L96.0 199.0 "/>
</g>
<g  style="" >
<path d="M96.0 199.0 L101.0 204.0 "/>
</g>
<g  style="" >
<path d="M96.0 199.0 L89.0 205.0 "/>
</g>
<g  style="" >
<path d="M96.0 199.0 L97.0 183.0 "/>
</g>
<g  style="" >
<path d="M96.0 199.0 L92.0 227.0 "/>
</g>
<g  style="" >
<path d="M96.0 199.0 L119.0 239.0 "/>
</g>
<g  style="" >
<path d="M104.0 222.0 L104.0 222.0 "/>
</g>
<g  style="" >
<path d="M104.0 222.0 L92.0 227.0 "/>
</g>
<g  style="" >
<path d="M104.0 222.0 L114.0 232.0 "/>
</g>
<g  style="" >
<path d="M104.0 222.0 L89.0 205.0 "/>
</g>
<g  style="" >
<path d="M104.0 222.0 L119.0 239.0 "/>
</g>
<g  style="" >
<path d="M104.0 222.0 L97.0 183.0 "/>
</g>
<g  style="" >
<path d="M125.0 216.0 L125.0 216.0 "/>
</g>
<g  style="" >
<path d="M125.0 216.0 L137.0 226.0 "/>
</g>
<g  style="" >
<path d="M125.0 216.0 L136.0 204.0 "/>
</g>
<g  style="" >
<path d="M125.0 216.0 L89.0 205.0 "/>
</g>
<g  style="" >
<path d="M125.0 216.0 L92.0 227.0 "/>
</g>
<g  style="" >
<path d="M125.0 216.0 L119.0 239.0 "/>
</g>
<g  style="" >
<path d="M141.0 180.0 L141.0 180.0 "/>
</g>
<g  style="" >
<path d="M141.0 180.0 L151.0 202.0 "/>
</g>
<g  style="" >
<path d="M141.0 180.0 L97.0 183.0 "/>
</g>
<g  style="" >
<path d="M141.0 180.0 L137.0 226.0 "/>
</g>
<g  style="" >
<path d="M141.0 180.0 L146.0 147.0 "/>
</g>
<g  style="" >
<path d="M141.0 180.0 L153.0 192.0 "/>
</g>
<g  style="" >
<path d="M126.0 169.0 L121.0 165.0 "/>
</g>
<g  style="" >
<path d="M126.0 169.0 L126.0 169.0 "/>
</g>
<g  style="" >
<path d="M126.0 169.0 L130.0 124.0 "/>
</g>
<g  style="" >
<path d="M126.0 169.0 L135.0 121.0 "/>
</g>
<g  style="" >
<path d="M126.0 169.0 L151.0 202.0 "/>
</g>
<g  style="" >
<path d="M126.0 169.0 L160.0 133.0 "/>
</g>
<g  style="" >
<path d="M101.0 204.0 L96.0 199.0 "/>
</g>
<g  style="" >
<path d="M101.0 204.0 L101.0 204.0 "/>
</g>
<g  style="" >
<path d="M101.0 204.0 L89.0 205.0 "/>
</g>
<g  style="" >
<path d="M101.0 204.0 L92.0 227.0 "/>
</g>
<g  style="" >
<path d="M101.0 204.0 L119.0 239.0 "/>
</g>
<g  style="" >
<path d="M101.0 204.0 L97.0 183.0 "/>
</g>
<g  style="" >
<path d="M101.0 240.0 L95.0 236.0 "/>
</g>
<g  style="" >
<path d="M101.0 240.0 L101.0 240.0 "/>
</g>
<g  style="" >
<path d="M101.0 240.0 L92.0 227.0 "/>
</g>
<g  style="" >
<path d="M101.0 240.0 L114.0 232.0 "/>
</g>
<g  style="" >
<path d="M101.0 240.0 L89.0 205.0 "/>
</g>
<g  style="" >
<path d="M101.0 240.0 L119.0 239.0 "/>
</g>
<g  style="" >
<path d="M121.0 233.0 L119.0 239.0 "/>
</g>
<g  style="" >
<path d="M121.0 233.0 L114.0 232.0 "/>
</g>
<g  style="" >
<path d="M121.0 233.0 L121.0 233.0 "/>
</g>
<g  style="" >
<path d="M121.0 233.0 L89.0 205.0 "/>
</g>
<g  style="" >
<path d="M121.0 233.0 L92.0 227.0 "/>
</g>
<g  style="" >
<path d="M121.0 233.0 L151.0 202.0 "/>
</g>
<g  style="" >
<path d="M136.0 204.0 L136.0 204.0 "/>
</g>
<g  style="" >
<path d="M136.0 204.0 L151.0 202.0 "/>
</g>
<g  style="" >
<path d="M136.0 204.0 L125.0 216.0 "/>
</g>
<g  style="" >
<path d="M136.0 204.0 L89.0 205.0 "/>
</g>
<g  style="" >
<path d="M136.0 204.0 L92.0 227.0 "/>
</g>
<g  style="" >
<path d="M136.0 204.0 L119.0 239.0 "/>
</g>
<g  style="" >
<path d="M123.0 268.0 L123.0 268.0 "/>
</g>
<g  style="" >
<path d="M123.0 268.0 L131.0 258.0 "/>
</g>
<g  style="" >
<path d="M123.0 268.0 L119.0 239.0 "/>
</g>
<g  style="" >
<path d="M123.0 268.0 L95.0 236.0 "/>
</g>
<g  style="" >
<path d="M123.0 268.0 L137.0 226.0 "/>
</g>
<g  style="" >
<path d="M123.0 268.0 L114.0 232.0 "/>
</g>
<g  style="" >
<path d="M135.0 248.0 L135.0 248.0 "/>
</g>
<g  style="" >
<path d="M135.0 248.0 L131.0 258.0 "/>
</g>
<g  style="" >
<path d="M135.0 248.0 L138.0 240.0 "/>
</g>
<g  style="" >
<path d="M135.0 248.0 L92.0 227.0 "/>
</g>
<g  style="" >
<path d="M135.0 248.0 L119.0 239.0 "/>
</g>
<g  style="" >
<path d="M135.0 248.0 L151.0 202.0 "/>
</g>
<g  style="" >
<path d="M138.0 240.0 L138.0 240.0 "/>
</g>
<g  style="" >
<path d="M138.0 240.0 L137.0 226.0 "/>
</g>
<g  style="" >
<path d="M138.0 240.0 L151.0 237.0 "/>
</g>
<g  style="" >
<path d="M138.0 240.0 L135.0 248.0 "/>
</g>
<g  style="" >
<path d="M138.0 240.0 L92.0 227.0 "/>
</g>
<g  style="" >
<path d="M138.0 240.0 L119.0 239.0 "/>
</g>
<g  style="" >
<path d="M100.0 592.0 L100.0 592.0 "/>
</g>
<g  style="" >
<path d="M100.0 592.0 L107.0 543.0 "/>
</g>
<g  style="" >
<path d="M100.0 592.0 L70.0 578.0 "/>
</g>
<g  style="" >
<path d="M100.0 592.0 L124.0 609.0 "/>
</g>
<g  style="" >
<path d="M100.0 592.0 L120.0 617.0 "/>
</g>
<g  style="" >
<path d="M100.0 592.0 L137.0 574.0 "/>
</g>
<g  style="" >
<path d="M51.0 427.0 L51.0 427.0 "/>
</g>
<g  style="" >
<path d="M51.0 427.0 L77.0 430.0 "/>
</g>
<g  style="" >
<path d="M51.0 427.0 L64.0 467.0 "/>
</g>
<g  style="" >
<path d="M77.0 430.0 L77.0 430.0 "/>
</g>
<g  style="" >
<path d="M77.0 430.0 L51.0 427.0 "/>
</g>
<g  style="" >
<path d="M77.0 430.0 L64.0 467.0 "/>
</g>
<g  style="" >
<path d="M95.0 477.0 L95.0 477.0 "/>
</g>
<g  style="" >
<path d="M95.0 477.0 L92.0 489.0 "/>
</g>
<g  style="" >
<path d="M95.0 477.0 L64.0 467.0 "/>
</g>
<g  style="" >
<path d="M95.0 477.0 L113.0 473.0 "/>
</g>
<g  style="" >
<path d="M95.0 477.0 L116.0 485.0 "/>
</g>
<g  style="" >
<path d="M95.0 477.0 L93.0 507.0 "/>
</g>
<g  style="" >
<path d="M81.0 530.0 L81.0 530.0 "/>
</g>
<g  style="" >
<path d="M81.0 530.0 L66.0 535.0 "/>
</g>
<g  style="" >
<path d="M81.0 530.0 L47.0 496.0 "/>
</g>
<g  style="" >
<path d="M81.0 530.0 L93.0 507.0 "/>
</g>
<g  style="" >
<path d="M81.0 530.0 L92.0 489.0 "/>
</g>
<g  style="" >
<path d="M81.0 530.0 L110.0 512.0 "/>
</g>
<g  style="" >
<path d="M66.0 535.0 L66.0 535.0 "/>
</g>
<g  style="" >
<path d="M66.0 535.0 L81.0 530.0 "/>
</g>
<g  style="" >
<path d="M66.0 535.0 L47.0 496.0 "/>
</g>
<g  style="" >
<path d="M66.0 535.0 L93.0 507.0 "/>
</g>
<g  style="" >
<path d="M66.0 535.0 L110.0 512.0 "/>
</g>
<g  style="" >
<path d="M66.0 535.0 L90.0 515.0 "/>
</g>
<g  style="" >
<path d="M47.0 496.0 L47.0 496.0 "/>
</g>
<g  style="" >
<path d="M47.0 496.0 L81.0 530.0 "/>
</g>
<g  style="" >
<path d="M47.0 496.0 L66.0 535.0 "/>
</g>
<g  style="" >
<path d="M47.0 496.0 L64.0 467.0 "/>
</g>
<g  style="" >
<path d="M47.0 496.0 L93.0 507.0 "/>
</g>
<g  style="" >
<path d="M47.0 496.0 L92.0 489.0 "/>
</g>
<g  style="" >
<path d="M64.0 467.0 L64.0 467.0 "/>
</g>
<g  style="" >
<path d="M64.0 467.0 L51.0 427.0 "/>
</g>
<g  style="" >
<path d="M64.0 467.0 L77.0 430.0 "/>
</g>
<g  style="" >
<path d="M64.0 467.0 L95.0 477.0 "/>
</g>
<g  style="" >
<path d="M64.0 467.0 L47.0 496.0 "/>
</g>
<g  style="" >
<path d="M64.0 467.0 L113.0 473.0 "/>
</g>
<g  style="" >
<path d="M113.0 473.0 L113.0 473.0 "/>
</g>
<g  style="" >
<path d="M113.0 473.0 L116.0 485.0 "/>
</g>
<g  style="" >
<path d="M113.0 473.0 L95.0 477.0 "/>
</g>
<g  style="" >
<path d="M113.0 473.0 L64.0 467.0 "/>
</g>
<g  style="" >
<path d="M113.0 473.0 L93.0 507.0 "/>
</g>
<g  style="" >
<path d="M113.0 473.0 L92.0 489.0 "/>
</g>
<g  style="" >
<path d="M116.0 485.0 L116.0 485.0 "/>
</g>
<g  style="" >
<path d="M116.0 485.0 L118.0 491.0 "/>
</g>
<g  style="" >
<path d="M116.0 485.0 L113.0 473.0 "/>
</g>
<g  style="" >
<path d="M116.0 485.0 L95.0 477.0 "/>
</g>
<g  style="" >
<path d="M116.0 485.0 L93.0 507.0 "/>
</g>
<g  style="" >
<path d="M116.0 485.0 L92.0 489.0 "/>
</g>
<g  style="" >
<path d="M93.0 507.0 L93.0 507.0 "/>
</g>
<g  style="" >
<path d="M93.0 507.0 L90.0 515.0 "/>
</g>
<g  style="" >
<path d="M93.0 507.0 L95.0 477.0 "/>
</g>
<g  style="" >
<path d="M93.0 507.0 L81.0 530.0 "/>
</g>
<g  style="" >
<path d="M93.0 507.0 L66.0 535.0 "/>
</g>
<g  style="" >
<path d="M93.0 507.0 L47.0 496.0 "/>
</g>
<g  style="" >
<path d="M92.0 489.0 L92.0 489.0 "/>
</g>
<g  style="" >
<path d="M92.0 489.0 L95.0 477.0 "/>
</g>
<g  style="" >
<path d="M92.0 489.0 L81.0 530.0 "/>
</g>
<g  style="" >
<path d="M92.0 489.0 L47.0 496.0 "/>
</g>
<g  style="" >
<path d="M92.0 489.0 L64.0 467.0 "/>
</g>
<g  style="" >
<path d="M92.0 489.0 L113.0 473.0 "/>
</g>
<g  style="" >
<path d="M118.0 491.0 L116.0 485.0 "/>
</g>
<g  style="" >
<path d="M118.0 491.0 L118.0 491.0 "/>
</g>
<g  style="" >
<path d="M118.0 491.0 L118.0 507.0 "/>
</g>
<g  style="" >
<path d="M118.0 491.0 L95.0 477.0 "/>
</g>
<g  style="" >
<path d="M118.0 491.0 L113.0 473.0 "/>
</g>
<g  style="" >
<path d="M118.0 491.0 L93.0 507.0 "/>
</g>
<g  style="" >
<path d="M110.0 512.0 L110.0 512.0 "/>
</g>
<g  style="" >
<path d="M110.0 512.0 L118.0 507.0 "/>
</g>
<g  style="" >
<path d="M110.0 512.0 L95.0 477.0 "/>
</g>
<g  style="" >
<path d="M110.0 512.0 L81.0 530.0 "/>
</g>
<g  style="" >
<path d="M110.0 512.0 L66.0 535.0 "/>
</g>
<g  style="" >
<path d="M110.0 512.0 L113.0 473.0 "/>
</g>
<g  style="" >
<path d="M90.0 515.0 L90.0 515.0 "/>
</g>
<g  style="" >
<path d="M90.0 515.0 L93.0 507.0 "/>
</g>
<g  style="" >
<path d="M90.0 515.0 L95.0 477.0 "/>
</g>
<g  style="" >
<path d="M90.0 515.0 L81.0 530.0 "/>
</g>
<g  style="" >
<path d="M90.0 515.0 L66.0 535.0 "/>
</g>
<g  style="" >
<path d="M90.0 515.0 L47.0 496.0 "/>
</g>
<g  style="" >
<path d="M65.0 506.0 L65.0 506.0 "/>
</g>
<g  style="" >
<path d="M65.0 506.0 L95.0 477.0 "/>
</g>
<g  style="" >
<path d="M65.0 506.0 L81.0 530.0 "/>
</g>
<g  style="" >
<path d="M65.0 506.0 L66.0 535.0 "/>
</g>
<g  style="" >
<path d="M65.0 506.0 L47.0 496.0 "/>
</g>
<g  style="" >
<path d="M65.0 506.0 L64.0 467.0 "/>
</g>
<g  style="" >
<path d="M118.0 507.0 L118.0 507.0 "/>
</g>
<g  style="" >
<path d="M118.0 507.0 L118.0 491.0 "/>
</g>
<g  style="" >
<path d="M118.0 507.0 L110.0 512.0 "/>
</g>
<g  style="" >
<path d="M118.0 507.0 L95.0 477.0 "/>
</g>
<g  style="" >
<path d="M118.0 507.0 L81.0 530.0 "/>
</g>
<g  style="" >
<path d="M118.0 507.0 L113.0 473.0 "/>
</g>
<g  style="" >
<path d="M107.0 543.0 L107.0 543.0 "/>
</g>
<g  style="" >
<path d="M107.0 543.0 L100.0 592.0 "/>
</g>
<g  style="" >
<path d="M107.0 543.0 L81.0 530.0 "/>
</g>
<g  style="" >
<path d="M107.0 543.0 L66.0 535.0 "/>
</g>
<g  style="" >
<path d="M107.0 543.0 L93.0 507.0 "/>
</g>
<g  style="" >
<path d="M107.0 543.0 L110.0 512.0 "/>
</g>
<g  style="" >
<path d="M70.0 578.0 L70.0 578.0 "/>
</g>
<g  style="" >
<path d="M70.0 578.0 L100.0 592.0 "/>
</g>
<g  style="" >
<path d="M70.0 578.0 L81.0 530.0 "/>
</g>
<g  style="" >
<path d="M70.0 578.0 L66.0 535.0 "/>
</g>
<g  style="" >
<path d="M70.0 578.0 L49.0 621.0 "/>
</g>
<g  style="" >
<path d="M70.0 578.0 L49.0 614.0 "/>
</g>
<g  style="" >
<path d="M124.0 609.0 L124.0 609.0 "/>
</g>
<g  style="" >
<path d="M124.0 609.0 L120.0 617.0 "/>
</g>
<g  style="" >
<path d="M124.0 609.0 L100.0 592.0 "/>
</g>
<g  style="" >
<path d="M124.0 609.0 L151.0 630.0 "/>
</g>
<g  style="" >
<path d="M124.0 609.0 L137.0 574.0 "/>
</g>
<g  style="" >
<path d="M186.0 631.0 L186.0 631.0 "/>
</g>
<g  style="" >
<path d="M365.0 632.0 L365.0 632.0 "/>
</g>
<g  style="" >
<path d="M319.0 592.0 L319.0 592.0 "/>
</g>
<g  style="" >
<path d="M319.0 592.0 L278.0 588.0 "/>
</g>
<g  style="" >
<path d="M319.0 592.0 L286.0 618.0 "/>
</g>
<g  style="" >
<path d="M319.0 592.0 L297.0 611.0 "/>
</g>
<g  style="" >
<path d="M319.0 592.0 L319.0 554.0 "/>
</g>
<g  style="" >
<path d="M278.0 588.0 L278.0 588.0 "/>
</g>
<g  style="" >
<path d="M278.0 588.0 L319.0 592.0 "/>
</g>
<g  style="" >
<path d="M278.0 588.0 L274.0 630.0 "/>
</g>
<g  style="" >
<path d="M278.0 588.0 L286.0 618.0 "/>
</g>
<g  style="" >
<path d="M278.0 588.0 L244.0 588.0 "/>
</g>
<g  style="" >
<path d="M278.0 588.0 L259.0 616.0 "/>
</g>
<g  style="" >
<path d="M197.0 635.0 L197.0 635.0 "/>
</g>
<g  style="" >
<path d="M197.0 635.0 L186.0 631.0 "/>
</g>
<g  style="" >
<path d="M197.0 635.0 L189.0 627.0 "/>
</g>
<g  style="" >
<path d="M197.0 635.0 L211.0 613.0 "/>
</g>
<g  style="" >
<path d="M197.0 635.0 L222.0 678.0 "/>
</g>
<g  style="" >
<path d="M197.0 635.0 L222.0 602.0 "/>
</g>
<g  style="" >
<path d="M274.0 630.0 L274.0 630.0 "/>
</g>
<g  style="" >
<path d="M274.0 630.0 L278.0 588.0 "/>
</g>
<g  style="" >
<path d="M274.0 630.0 L286.0 618.0 "/>
</g>
<g  style="" >
<path d="M274.0 630.0 L259.0 616.0 "/>
</g>
<g  style="" >
<path d="M274.0 630.0 L244.0 603.0 "/>
</g>
<g  style="" >
<path d="M274.0 630.0 L239.0 613.0 "/>
</g>
<g  style="" >
<path d="M286.0 618.0 L286.0 618.0 "/>
</g>
<g  style="" >
<path d="M286.0 618.0 L297.0 611.0 "/>
</g>
<g  style="" >
<path d="M286.0 618.0 L319.0 592.0 "/>
</g>
<g  style="" >
<path d="M286.0 618.0 L278.0 588.0 "/>
</g>
<g  style="" >
<path d="M286.0 618.0 L274.0 630.0 "/>
</g>
<g  style="" >
<path d="M286.0 618.0 L259.0 616.0 "/>
</g>
<g  style="" >
<path d="M244.0 588.0 L244.0 588.0 "/>
</g>
<g  style="" >
<path d="M244.0 588.0 L244.0 603.0 "/>
</g>
<g  style="" >
<path d="M244.0 588.0 L253.0 578.0 "/>
</g>
<g  style="" >
<path d="M244.0 588.0 L278.0 588.0 "/>
</g>
<g  style="" >
<path d="M244.0 588.0 L211.0 613.0 "/>
</g>
<g  style="" >
<path d="M244.0 588.0 L259.0 616.0 "/>
</g>
<g  style="" >
<path d="M211.0 613.0 L211.0 613.0 "/>
</g>
<g  style="" >
<path d="M211.0 613.0 L222.0 602.0 "/>
</g>
<g  style="" >
<path d="M211.0 613.0 L186.0 631.0 "/>
</g>
<g  style="" >
<path d="M211.0 613.0 L197.0 635.0 "/>
</g>
<g  style="" >
<path d="M211.0 613.0 L244.0 588.0 "/>
</g>
<g  style="" >
<path d="M211.0 613.0 L259.0 616.0 "/>
</g>
<g  style="" >
<path d="M222.0 678.0 L222.0 678.0 "/>
</g>
<g  style="" >
<path d="M222.0 678.0 L197.0 635.0 "/>
</g>
<g  style="" >
<path d="M222.0 678.0 L216.0 645.0 "/>
</g>
<g  style="" >
<path d="M259.0 616.0 L259.0 616.0 "/>
</g>
<g  style="" >
<path d="M259.0 616.0 L278.0 588.0 "/>
</g>
<g  style="" >
<path d="M259.0 616.0 L274.0 630.0 "/>
</g>
<g  style="" >
<path d="M244.0 603.0 L244.0 603.0 "/>
</g>
<g  style="" >
<path d="M244.0 603.0 L244.0 588.0 "/>
</g>
<g  style="" >
<path d="M244.0 603.0 L239.0 613.0 "/>
</g>
<g  style="" >
<path d="M244.0 603.0 L238.0 610.0 "/>
</g>
<g  style="" >
<path d="M244.0 603.0 L278.0 588.0 "/>
</g>
<g  style="" >
<path d="M244.0 603.0 L274.0 630.0 "/>
</g>
<g  style="" >
<path d="M222.0 602.0 L222.0 602.0 "/>
</g>
<g  style="" >
<path d="M222.0 602.0 L211.0 613.0 "/>
</g>
<g  style="" >
<path d="M222.0 602.0 L186.0 631.0 "/>
</g>
<g  style="" >
<path d="M222.0 602.0 L197.0 635.0 "/>
</g>
<g  style="" >
<path d="M222.0 602.0 L244.0 588.0 "/>
</g>
<g  style="" >
<path d="M222.0 602.0 L259.0 616.0 "/>
</g>
<g  style="" >
<path d="M216.0 645.0 L216.0 645.0 "/>
</g>
<g  style="" >
<path d="M216.0 645.0 L186.0 631.0 "/>
</g>
<g  style="" >
<path d="M216.0 645.0 L197.0 635.0 "/>
</g>
<g  style="" >
<path d="M216.0 645.0 L211.0 613.0 "/>
</g>
<g  style="" >
<path d="M216.0 645.0 L222.0 678.0 "/>
</g>
<g  style="" >
<path d="M216.0 645.0 L222.0 602.0 "/>
</g>
<g  style="" >
<path d="M239.0 613.0 L239.0 613.0 "/>
</g>
<g  style="" >
<path d="M239.0 613.0 L238.0 610.0 "/>
</g>
<g  style="" >
<path d="M239.0 613.0 L244.0 603.0 "/>
</g>
<g  style="" >
<path d="M239.0 613.0 L231.0 617.0 "/>
</g>
<g  style="" >
<path d="M239.0 613.0 L278.0 588.0 "/>
</g>
<g  style="" >
<path d="M239.0 613.0 L197.0 635.0 "/>
</g>
<g  style="" >
<path d="M238.0 610.0 L239.0 613.0 "/>
</g>
<g  style="" >
<path d="M238.0 610.0 L238.0 610.0 "/>
</g>
<g  style="" >
<path d="M238.0 610.0 L244.0 603.0 "/>
</g>
<g  style="" >
<path d="M238.0 610.0 L231.0 617.0 "/>
</g>
<g  style="" >
<path d="M238.0 610.0 L278.0 588.0 "/>
</g>
<g  style="" >
<path d="M238.0 610.0 L197.0 635.0 "/>
</g>
<g  style="" >
<path d="M219.0 628.0 L219.0 628.0 "/>
</g>
<g  style="" >
<path d="M219.0 628.0 L231.0 617.0 "/>
</g>
<g  style="" >
<path d="M219.0 628.0 L186.0 631.0 "/>
</g>
<g  style="" >
<path d="M219.0 628.0 L197.0 635.0 "/>
</g>
<g  style="" >
<path d="M219.0 628.0 L244.0 588.0 "/>
</g>
<g  style="" >
<path d="M219.0 628.0 L211.0 613.0 "/>
</g>
<g  style="" >
<path d="M189.0 627.0 L186.0 631.0 "/>
</g>
<g  style="" >
<path d="M189.0 627.0 L189.0 627.0 "/>
</g>
<g  style="" >
<path d="M189.0 627.0 L197.0 635.0 "/>
</g>
<g  style="" >
<path d="M189.0 627.0 L211.0 613.0 "/>
</g>
<g  style="" >
<path d="M189.0 627.0 L222.0 602.0 "/>
</g>
<g  style="" >
<path d="M189.0 627.0 L216.0 645.0 "/>
</g>
<g  style="" >
<path d="M102.0 655.0 L102.0 655.0 "/>
</g>
<g  style="" >
<path d="M102.0 655.0 L120.0 617.0 "/>
</g>
<g  style="" >
<path d="M151.0 630.0 L151.0 630.0 "/>
</g>
<g  style="" >
<path d="M151.0 630.0 L124.0 609.0 "/>
</g>
<g  style="" >
<path d="M151.0 630.0 L186.0 631.0 "/>
</g>
<g  style="" >
<path d="M151.0 630.0 L197.0 635.0 "/>
</g>
<g  style="" >
<path d="M120.0 617.0 L120.0 617.0 "/>
</g>
<g  style="" >
<path d="M120.0 617.0 L124.0 609.0 "/>
</g>
<g  style="" >
<path d="M120.0 617.0 L100.0 592.0 "/>
</g>
<g  style="" >
<path d="M120.0 617.0 L102.0 655.0 "/>
</g>
<g  style="" >
<path d="M120.0 617.0 L151.0 630.0 "/>
</g>
<g  style="" >
<path d="M120.0 617.0 L137.0 574.0 "/>
</g>
<g  style="" >
<path d="M3.0 646.0 L3.0 646.0 "/>
</g>
<g  style="" >
<path d="M3.0 646.0 L6.0 651.0 "/>
</g>
<g  style="" >
<path d="M3.0 646.0 L33.0 609.0 "/>
</g>
<g  style="" >
<path d="M3.0 646.0 L38.0 642.0 "/>
</g>
<g  style="" >
<path d="M49.0 621.0 L49.0 621.0 "/>
</g>
<g  style="" >
<path d="M49.0 621.0 L49.0 614.0 "/>
</g>
<g  style="" >
<path d="M49.0 614.0 L49.0 621.0 "/>
</g>
<g  style="" >
<path d="M49.0 614.0 L49.0 614.0 "/>
</g>
<g  style="" >
<path d="M49.0 614.0 L70.0 578.0 "/>
</g>
<g  style="" >
<path d="M49.0 614.0 L33.0 609.0 "/>
</g>
<g  style="" >
<path d="M49.0 614.0 L38.0 642.0 "/>
</g>
<g  style="" >
<path d="M6.0 651.0 L3.0 646.0 "/>
</g>
<g  style="" >
<path d="M33.0 609.0 L33.0 609.0 "/>
</g>
<g  style="" >
<path d="M33.0 609.0 L70.0 578.0 "/>
</g>
<g  style="" >
<path d="M33.0 609.0 L3.0 646.0 "/>
</g>
<g  style="" >
<path d="M33.0 609.0 L49.0 621.0 "/>
</g>
<g  style="" >
<path d="M33.0 609.0 L49.0 614.0 "/>
</g>
<g  style="" >
<path d="M33.0 609.0 L6.0 651.0 "/>
</g>
<g  style="" >
<path d="M38.0 642.0 L38.0 642.0 "/>
</g>
<g  style="" >
<path d="M38.0 642.0 L3.0 646.0 "/>
</g>
<g  style="" >
<path d="M38.0 642.0 L49.0 621.0 "/>
</g>
<g  style="" >
<path d="M38.0 642.0 L49.0 614.0 "/>
</g>
<g  style="" >
<path d="M38.0 642.0 L6.0 651.0 "/>
</g>
<g  style="" >
<path d="M38.0 642.0 L33.0 609.0 "/>
</g>
<g  style="" >
<path d="M207.0 536.0 L207.0 536.0 "/>
</g>
<g  style="" >
<path d="M207.0 536.0 L207.0 544.0 "/>
</g>
<g  style="" >
<path d="M207.0 536.0 L254.0 526.0 "/>
</g>
<g  style="" >
<path d="M207.0 536.0 L246.0 551.0 "/>
</g>
<g  style="" >
<path d="M207.0 536.0 L243.0 548.0 "/>
</g>
<g  style="" >
<path d="M207.0 536.0 L184.0 552.0 "/>
</g>
<g  style="" >
<path d="M254.0 526.0 L254.0 526.0 "/>
</g>
<g  style="" >
<path d="M254.0 526.0 L242.0 533.0 "/>
</g>
<g  style="" >
<path d="M254.0 526.0 L207.0 536.0 "/>
</g>
<g  style="" >
<path d="M254.0 526.0 L246.0 551.0 "/>
</g>
<g  style="" >
<path d="M254.0 526.0 L243.0 548.0 "/>
</g>
<g  style="" >
<path d="M254.0 526.0 L269.0 499.0 "/>
</g>
<g  style="" >
<path d="M231.0 617.0 L231.0 617.0 "/>
</g>
<g  style="" >
<path d="M231.0 617.0 L239.0 613.0 "/>
</g>
<g  style="" >
<path d="M231.0 617.0 L238.0 610.0 "/>
</g>
<g  style="" >
<path d="M231.0 617.0 L219.0 628.0 "/>
</g>
<g  style="" >
<path d="M231.0 617.0 L186.0 631.0 "/>
</g>
<g  style="" >
<path d="M231.0 617.0 L197.0 635.0 "/>
</g>
<g  style="" >
<path d="M253.0 578.0 L253.0 578.0 "/>
</g>
<g  style="" >
<path d="M253.0 578.0 L244.0 588.0 "/>
</g>
<g  style="" >
<path d="M253.0 578.0 L278.0 588.0 "/>
</g>
<g  style="" >
<path d="M253.0 578.0 L259.0 616.0 "/>
</g>
<g  style="" >
<path d="M253.0 578.0 L244.0 603.0 "/>
</g>
<g  style="" >
<path d="M253.0 578.0 L222.0 602.0 "/>
</g>
<g  style="" >
<path d="M246.0 551.0 L246.0 551.0 "/>
</g>
<g  style="" >
<path d="M246.0 551.0 L243.0 548.0 "/>
</g>
<g  style="" >
<path d="M246.0 551.0 L278.0 588.0 "/>
</g>
<g  style="" >
<path d="M246.0 551.0 L244.0 588.0 "/>
</g>
<g  style="" >
<path d="M246.0 551.0 L207.0 536.0 "/>
</g>
<g  style="" >
<path d="M246.0 551.0 L254.0 526.0 "/>
</g>
<g  style="" >
<path d="M243.0 548.0 L246.0 551.0 "/>
</g>
<g  style="" >
<path d="M243.0 548.0 L243.0 548.0 "/>
</g>
<g  style="" >
<path d="M243.0 548.0 L242.0 533.0 "/>
</g>
<g  style="" >
<path d="M243.0 548.0 L244.0 588.0 "/>
</g>
<g  style="" >
<path d="M243.0 548.0 L207.0 536.0 "/>
</g>
<g  style="" >
<path d="M243.0 548.0 L254.0 526.0 "/>
</g>
<g  style="" >
<path d="M297.0 611.0 L297.0 611.0 "/>
</g>
<g  style="" >
<path d="M297.0 611.0 L286.0 618.0 "/>
</g>
<g  style="" >
<path d="M297.0 611.0 L319.0 592.0 "/>
</g>
<g  style="" >
<path d="M297.0 611.0 L278.0 588.0 "/>
</g>
<g  style="" >
<path d="M297.0 611.0 L274.0 630.0 "/>
</g>
<g  style="" >
<path d="M297.0 611.0 L259.0 616.0 "/>
</g>
<g  style="" >
<path d="M128.0 533.0 L128.0 533.0 "/>
</g>
<g  style="" >
<path d="M128.0 533.0 L81.0 530.0 "/>
</g>
<g  style="" >
<path d="M128.0 533.0 L116.0 485.0 "/>
</g>
<g  style="" >
<path d="M128.0 533.0 L93.0 507.0 "/>
</g>
<g  style="" >
<path d="M128.0 533.0 L118.0 491.0 "/>
</g>
<g  style="" >
<path d="M128.0 533.0 L110.0 512.0 "/>
</g>
<g  style="" >
<path d="M207.0 544.0 L207.0 536.0 "/>
</g>
<g  style="" >
<path d="M207.0 544.0 L207.0 544.0 "/>
</g>
<g  style="" >
<path d="M207.0 544.0 L246.0 551.0 "/>
</g>
<g  style="" >
<path d="M207.0 544.0 L243.0 548.0 "/>
</g>
<g  style="" >
<path d="M207.0 544.0 L184.0 552.0 "/>
</g>
<g  style="" >
<path d="M207.0 544.0 L242.0 533.0 "/>
</g>
<g  style="" >
<path d="M137.0 574.0 L137.0 574.0 "/>
</g>
<g  style="" >
<path d="M137.0 574.0 L100.0 592.0 "/>
</g>
<g  style="" >
<path d="M137.0 574.0 L107.0 543.0 "/>
</g>
<g  style="" >
<path d="M137.0 574.0 L124.0 609.0 "/>
</g>
<g  style="" >
<path d="M137.0 574.0 L120.0 617.0 "/>
</g>
<g  style="" >
<path d="M137.0 574.0 L128.0 533.0 "/>
</g>
<g  style="" >
<path d="M184.0 552.0 L184.0 552.0 "/>
</g>
<g  style="" >
<path d="M184.0 552.0 L207.0 536.0 "/>
</g>
<g  style="" >
<path d="M184.0 552.0 L207.0 544.0 "/>
</g>
<g  style="" >
<path d="M269.0 499.0 L269.0 499.0 "/>
</g>
<g  style="" >
<path d="M269.0 499.0 L254.0 526.0 "/>
</g>
<g  style="" >
<path d="M269.0 499.0 L242.0 533.0 "/>
</g>
<g  style="" >
<path d="M242.0 533.0 L242.0 533.0 "/>
</g>
<g  style="" >
<path d="M242.0 533.0 L254.0 526.0 "/>
</g>
<g  style="" >
<path d="M242.0 533.0 L243.0 548.0 "/>
</g>
<g  style="" >
<path d="M242.0 533.0 L207.0 536.0 "/>
</g>
<g  style="" >
<path d="M242.0 533.0 L253.0 578.0 "/>
</g>
<g  style="" >
<path d="M242.0 533.0 L246.0 551.0 "/>
</g>
<g  style="" >
<path d="M296.0 515.0 L296.0 515.0 "/>
</g>
<g  style="" >
<path d="M296.0 515.0 L254.0 526.0 "/>
</g>
<g  style="" >
<path d="M296.0 515.0 L269.0 499.0 "/>
</g>
<g  style="" >
<path d="M296.0 515.0 L319.0 554.0 "/>
</g>
<g  style="" >
<path d="M319.0 554.0 L319.0 554.0 "/>
</g>
<g  style="" >
<path d="M319.0 554.0 L319.0 592.0 "/>
</g>
<g  style="" >
<path d="M96.0 114.0 L99.0 126.0 "/>
</g>
<g  style="" >
<path d="M99.0 126.0 L130.0 124.0 "/>
</g>
<g  style="" >
<path d="M130.0 124.0 L135.0 121.0 "/>
</g>
<g  style="" >
<path d="M135.0 121.0 L89.0 205.0 "/>
</g>
<g  style="" >
<path d="M89.0 205.0 L92.0 227.0 "/>
</g>
<g  style="" >
<path d="M92.0 227.0 L119.0 239.0 "/>
</g>
<g  style="" >
<path d="M119.0 239.0 L151.0 202.0 "/>
</g>
<g  style="" >
<path d="M151.0 202.0 L160.0 133.0 "/>
</g>
<g  style="" >
<path d="M160.0 133.0 L135.0 130.0 "/>
</g>
<g  style="" >
<path d="M135.0 130.0 L97.0 183.0 "/>
</g>
<g  style="" >
<path d="M97.0 183.0 L95.0 236.0 "/>
</g>
<g  style="" >
<path d="M95.0 236.0 L137.0 226.0 "/>
</g>
<g  style="" >
<path d="M137.0 226.0 L187.0 157.0 "/>
</g>
<g  style="" >
<path d="M187.0 157.0 L187.0 135.0 "/>
</g>
<g  style="" >
<path d="M187.0 135.0 L146.0 147.0 "/>
</g>
<g  style="" >
<path d="M146.0 147.0 L114.0 232.0 "/>
</g>
<g  style="" >
<path d="M114.0 232.0 L131.0 258.0 "/>
</g>
<g  style="" >
<path d="M131.0 258.0 L151.0 237.0 "/>
</g>
<g  style="" >
<path d="M151.0 237.0 L153.0 192.0 "/>
</g>
<g  style="" >
<path d="M153.0 192.0 L121.0 165.0 "/>
</g>
<g  style="" >
<path d="M121.0 165.0 L96.0 199.0 "/>
</g>
<g  style="" >
<path d="M96.0 199.0 L104.0 222.0 "/>
</g>
<g  style="" >
<path d="M104.0 222.0 L125.0 216.0 "/>
</g>
<g  style="" >
<path d="M125.0 216.0 L141.0 180.0 "/>
</g>
<g  style="" >
<path d="M141.0 180.0 L126.0 169.0 "/>
</g>
<g  style="" >
<path d="M126.0 169.0 L101.0 204.0 "/>
</g>
<g  style="" >
<path d="M101.0 204.0 L101.0 240.0 "/>
</g>
<g  style="" >
<path d="M101.0 240.0 L121.0 233.0 "/>
</g>
<g  style="" >
<path d="M121.0 233.0 L136.0 204.0 "/>
</g>
<g  style="" >
<path d="M136.0 204.0 L123.0 268.0 "/>
</g>
<g  style="" >
<path d="M123.0 268.0 L135.0 248.0 "/>
</g>
<g  style="" >
<path d="M135.0 248.0 L138.0 240.0 "/>
</g>
<g  style="" >
<path d="M138.0 240.0 L100.0 592.0 "/>
</g>
<g  style="" >
<path d="M100.0 592.0 L51.0 427.0 "/>
</g>
<g  style="" >
<path d="M51.0 427.0 L77.0 430.0 "/>
</g>
<g  style="" >
<path d="M77.0 430.0 L95.0 477.0 "/>
</g>
<g  style="" >
<path d="M95.0 477.0 L81.0 530.0 "/>
</g>
<g  style="" >
<path d="M81.0 530.0 L66.0 535.0 "/>
</g>
<g  style="" >
<path d="M66.0 535.0 L47.0 496.0 "/>
</g>
<g  style="" >
<path d="M47.0 496.0 L64.0 467.0 "/>
</g>
<g  style="" >
<path d="M64.0 467.0 L113.0 473.0 "/>
</g>
<g  style="" >
<path d="M113.0 473.0 L116.0 485.0 "/>
</g>
<g  style="" >
<path d="M116.0 485.0 L93.0 507.0 "/>
</g>
<g  style="" >
<path d="M93.0 507.0 L92.0 489.0 "/>
</g>
<g  style="" >
<path d="M92.0 489.0 L118.0 491.0 "/>
</g>
<g  style="" >
<path d="M118.0 491.0 L110.0 512.0 "/>
</g>
<g  style="" >
<path d="M110.0 512.0 L90.0 515.0 "/>
</g>
<g  style="" >
<path d="M90.0 515.0 L65.0 506.0 "/>
</g>
<g  style="" >
<path d="M65.0 506.0 L118.0 507.0 "/>
</g>
<g  style="" >
<path d="M118.0 507.0 L107.0 543.0 "/>
</g>
<g  style="" >
<path d="M107.0 543.0 L70.0 578.0 "/>
</g>
<g  style="" >
<path d="M70.0 578.0 L124.0 609.0 "/>
</g>
<g  style="" >
<path d="M124.0 609.0 L186.0 631.0 "/>
</g>
<g  style="" >
<path d="M186.0 631.0 L365.0 632.0 "/>
</g>
<g  style="" >
<path d="M365.0 632.0 L319.0 592.0 "/>
</g>
<g  style="" >
<path d="M319.0 592.0 L278.0 588.0 "/>
</g>
<g  style="" >
<path d="M278.0 588.0 L197.0 635.0 "/>
</g>
<g  style="" >
<path d="M197.0 635.0 L274.0 630.0 "/>
</g>
<g  style="" >
<path d="M274.0 630.0 L286.0 618.0 "/>
</g>
<g  style="" >
<path d="M286.0 618.0 L244.0 588.0 "/>
</g>
<g  style="" >
<path d="M244.0 588.0 L211.0 613.0 "/>
</g>
<g  style="" >
<path d="M211.0 613.0 L222.0 678.0 "/>
</g>
<g  style="" >
<path d="M222.0 678.0 L259.0 616.0 "/>
</g>
<g  style="" >
<path d="M259.0 616.0 L244.0 603.0 "/>
</g>
<g  style="" >
<path d="M244.0 603.0 L222.0 602.0 "/>
</g>
<g  style="" >
<path d="M222.0 602.0 L216.0 645.0 "/>
</g>
<g  style="" >
<path d="M216.0 645.0 L239.0 613.0 "/>
</g>
<g  style="" >
<path d="M239.0 613.0 L238.0 610.0 "/>
</g>
<g  style="" >
<path d="M238.0 610.0 L219.0 628.0 "/>
</g>
<g  style="" >
<path d="M219.0 628.0 L189.0 627.0 "/>
</g>
<g  style="" >
<path d="M189.0 627.0 L102.0 655.0 "/>
</g>
<g  style="" >
<path d="M102.0 655.0 L151.0 630.0 "/>
</g>
<g  style="" >
<path d="M151.0 630.0 L120.0 617.0 "/>
</g>
<g  style="" >
<path d="M120.0 617.0 L3.0 646.0 "/>
</g>
<g  style="" >
<path d="M3.0 646.0 L49.0 621.0 "/>
</g>
<g  style="" >
<path d="M49.0 621.0 L49.0 614.0 "/>
</g>
<g  style="" >
<path d="M49.0 614.0 L6.0 651.0 "/>
</g>
<g  style="" >
<path d="M6.0 651.0 L33.0 609.0 "/>
</g>
<g  style="" >
<path d="M33.0 609.0 L38.0 642.0 "/>
</g>
<g  style="" >
<path d="M38.0 642.0 L207.0 536.0 "/>
</g>
<g  style="" >
<path d="M207.0 536.0 L254.0 526.0 "/>
</g>
<g  style="" >
<path d="M254.0 526.0 L231.0 617.0 "/>
</g>
<g  style="" >
<path d="M231.0 617.0 L253.0 578.0 "/>
</g>
<g  style="" >
<path d="M253.0 578.0 L246.0 551.0 "/>
</g>
<g  style="" >
<path d="M246.0 551.0 L243.0 548.0 "/>
</g>
<g  style="" >
<path d="M243.0 548.0 L297.0 611.0 "/>
</g>
<g  style="" >
<path d="M297.0 611.0 L128.0 533.0 "/>
</g>
<g  style="" >
<path d="M128.0 533.0 L207.0 544.0 "/>
</g>
<g  style="" >
<path d="M207.0 544.0 L137.0 574.0 "/>
</g>
<g  style="" >
<path d="M137.0 574.0 L184.0 552.0 "/>
</g>
<g  style="" >
<path d="M184.0 552.0 L269.0 499.0 "/>
</g>
<g  style="" >
<path d="M269.0 499.0 L242.0 533.0 "/>
</g>
<g  style="" >
<path d="M242.0 533.0 L296.0 515.0 "/>
</g>
<g  style="" >
<path d="M296.0 515.0 L319.0 554.0 "/>
</g>
</g>
<g  style="fill:none;stroke:#FF8787;stroke-width:1.0;" >
<g  style="" >
<path d="M322.0 113.0 L322.0 113.0 "/>
</g>
<g  style="" >
<path d="M322.0 113.0 L366.0 97.0 "/>
</g>
<g  style="" >
<path d="M293.0 195.0 L293.0 195.0 "/>
</g>
<g  style="" >
<path d="M293.0 195.0 L308.0 232.0 "/>
</g>
<g  style="" >
<path d="M293.0 195.0 L265.0 168.0 "/>
</g>
<g  style="" >
<path d="M308.0 232.0 L308.0 232.0 "/>
</g>
<g  style="" >
<path d="M308.0 232.0 L293.0 195.0 "/>
</g>
<g  style="" >
<path d="M308.0 232.0 L286.0 247.0 "/>
</g>
<g  style="" >
<path d="M415.0 91.0 L415.0 91.0 "/>
</g>
<g  style="" >
<path d="M415.0 91.0 L410.0 99.0 "/>
</g>
<g  style="" >
<path d="M415.0 91.0 L415.0 78.0 "/>
</g>
<g  style="" >
<path d="M411.0 74.0 L411.0 74.0 "/>
</g>
<g  style="" >
<path d="M411.0 74.0 L415.0 78.0 "/>
</g>
<g  style="" >
<path d="M411.0 74.0 L403.0 70.0 "/>
</g>
<g  style="" >
<path d="M411.0 74.0 L424.0 73.0 "/>
</g>
<g  style="" >
<path d="M411.0 74.0 L415.0 91.0 "/>
</g>
<g  style="" >
<path d="M411.0 74.0 L410.0 99.0 "/>
</g>
<g  style="" >
<path d="M403.0 70.0 L403.0 70.0 "/>
</g>
<g  style="" >
<path d="M403.0 70.0 L411.0 74.0 "/>
</g>
<g  style="" >
<path d="M403.0 70.0 L415.0 78.0 "/>
</g>
<g  style="" >
<path d="M403.0 70.0 L415.0 91.0 "/>
</g>
<g  style="" >
<path d="M403.0 70.0 L410.0 99.0 "/>
</g>
<g  style="" >
<path d="M403.0 70.0 L424.0 73.0 "/>
</g>
<g  style="" >
<path d="M410.0 99.0 L410.0 99.0 "/>
</g>
<g  style="" >
<path d="M410.0 99.0 L415.0 91.0 "/>
</g>
<g  style="" >
<path d="M410.0 99.0 L402.0 110.0 "/>
</g>
<g  style="" >
<path d="M410.0 99.0 L415.0 110.0 "/>
</g>
<g  style="" >
<path d="M410.0 99.0 L411.0 74.0 "/>
</g>
<g  style="" >
<path d="M410.0 99.0 L403.0 70.0 "/>
</g>
<g  style="" >
<path d="M424.0 73.0 L424.0 73.0 "/>
</g>
<g  style="" >
<path d="M424.0 73.0 L411.0 74.0 "/>
</g>
<g  style="" >
<path d="M424.0 73.0 L415.0 78.0 "/>
</g>
<g  style="" >
<path d="M424.0 73.0 L415.0 91.0 "/>
</g>
<g  style="" >
<path d="M424.0 73.0 L403.0 70.0 "/>
</g>
<g  style="" >
<path d="M424.0 73.0 L410.0 99.0 "/>
</g>
<g  style="" >
<path d="M388.0 107.0 L388.0 107.0 "/>
</g>
<g  style="" >
<path d="M388.0 107.0 L402.0 110.0 "/>
</g>
<g  style="" >
<path d="M388.0 107.0 L388.0 118.0 "/>
</g>
<g  style="" >
<path d="M388.0 107.0 L415.0 91.0 "/>
</g>
<g  style="" >
<path d="M388.0 107.0 L411.0 74.0 "/>
</g>
<g  style="" >
<path d="M388.0 107.0 L403.0 70.0 "/>
</g>
<g  style="" >
<path d="M402.0 110.0 L402.0 110.0 "/>
</g>
<g  style="" >
<path d="M402.0 110.0 L410.0 99.0 "/>
</g>
<g  style="" >
<path d="M402.0 110.0 L388.0 107.0 "/>
</g>
<g  style="" >
<path d="M402.0 110.0 L388.0 118.0 "/>
</g>
<g  style="" >
<path d="M402.0 110.0 L415.0 110.0 "/>
</g>
<g  style="" >
<path d="M402.0 110.0 L415.0 91.0 "/>
</g>
<g  style="" >
<path d="M366.0 97.0 L366.0 97.0 "/>
</g>
<g  style="" >
<path d="M366.0 97.0 L322.0 113.0 "/>
</g>
<g  style="" >
<path d="M366.0 97.0 L415.0 91.0 "/>
</g>
<g  style="" >
<path d="M366.0 97.0 L403.0 70.0 "/>
</g>
<g  style="" >
<path d="M366.0 97.0 L410.0 99.0 "/>
</g>
<g  style="" >
<path d="M366.0 97.0 L388.0 107.0 "/>
</g>
<g  style="" >
<path d="M415.0 78.0 L411.0 74.0 "/>
</g>
<g  style="" >
<path d="M415.0 78.0 L415.0 78.0 "/>
</g>
<g  style="" >
<path d="M415.0 78.0 L415.0 91.0 "/>
</g>
<g  style="" >
<path d="M415.0 78.0 L403.0 70.0 "/>
</g>
<g  style="" >
<path d="M415.0 78.0 L424.0 73.0 "/>
</g>
<g  style="" >
<path d="M415.0 78.0 L410.0 99.0 "/>
</g>
<g  style="" >
<path d="M265.0 168.0 L265.0 168.0 "/>
</g>
<g  style="" >
<path d="M265.0 168.0 L293.0 195.0 "/>
</g>
<g  style="" >
<path d="M490.0 60.0 L490.0 60.0 "/>
</g>
<g  style="" >
<path d="M490.0 60.0 L493.0 49.0 "/>
</g>
<g  style="" >
<path d="M490.0 60.0 L478.0 45.0 "/>
</g>
<g  style="" >
<path d="M490.0 60.0 L450.0 80.0 "/>
</g>
<g  style="" >
<path d="M493.0 49.0 L493.0 49.0 "/>
</g>
<g  style="" >
<path d="M493.0 49.0 L490.0 60.0 "/>
</g>
<g  style="" >
<path d="M493.0 49.0 L478.0 45.0 "/>
</g>
<g  style="" >
<path d="M478.0 45.0 L478.0 45.0 "/>
</g>
<g  style="" >
<path d="M478.0 45.0 L493.0 49.0 "/>
</g>
<g  style="" >
<path d="M478.0 45.0 L490.0 60.0 "/>
</g>
<g  style="" >
<path d="M430.0 51.0 L430.0 51.0 "/>
</g>
<g  style="" >
<path d="M430.0 51.0 L415.0 91.0 "/>
</g>
<g  style="" >
<path d="M430.0 51.0 L411.0 74.0 "/>
</g>
<g  style="" >
<path d="M430.0 51.0 L403.0 70.0 "/>
</g>
<g  style="" >
<path d="M430.0 51.0 L424.0 73.0 "/>
</g>
<g  style="" >
<path d="M430.0 51.0 L415.0 78.0 "/>
</g>
<g  style="" >
<path d="M388.0 118.0 L388.0 118.0 "/>
</g>
<g  style="" >
<path d="M388.0 118.0 L388.0 107.0 "/>
</g>
<g  style="" >
<path d="M388.0 118.0 L402.0 110.0 "/>
</g>
<g  style="" >
<path d="M388.0 118.0 L415.0 91.0 "/>
</g>
<g  style="" >
<path d="M388.0 118.0 L411.0 74.0 "/>
</g>
<g  style="" >
<path d="M388.0 118.0 L410.0 99.0 "/>
</g>
<g  style="" >
<path d="M415.0 110.0 L415.0 110.0 "/>
</g>
<g  style="" >
<path d="M415.0 110.0 L410.0 99.0 "/>
</g>
<g  style="" >
<path d="M415.0 110.0 L402.0 110.0 "/>
</g>
<g  style="" >
<path d="M415.0 110.0 L415.0 91.0 "/>
</g>
<g  style="" >
<path d="M415.0 110.0 L411.0 74.0 "/>
</g>
<g  style="" >
<path d="M415.0 110.0 L403.0 70.0 "/>
</g>
<g  style="" >
<path d="M436.0 97.0 L436.0 97.0 "/>
</g>
<g  style="" >
<path d="M436.0 97.0 L449.0 93.0 "/>
</g>
<g  style="" >
<path d="M436.0 97.0 L415.0 91.0 "/>
</g>
<g  style="" >
<path d="M436.0 97.0 L411.0 74.0 "/>
</g>
<g  style="" >
<path d="M436.0 97.0 L403.0 70.0 "/>
</g>
<g  style="" >
<path d="M436.0 97.0 L410.0 99.0 "/>
</g>
<g  style="" >
<path d="M450.0 80.0 L450.0 80.0 "/>
</g>
<g  style="" >
<path d="M450.0 80.0 L449.0 93.0 "/>
</g>
<g  style="" >
<path d="M450.0 80.0 L415.0 91.0 "/>
</g>
<g  style="" >
<path d="M450.0 80.0 L411.0 74.0 "/>
</g>
<g  style="" >
<path d="M450.0 80.0 L403.0 70.0 "/>
</g>
<g  style="" >
<path d="M450.0 80.0 L410.0 99.0 "/>
</g>
<g  style="" >
<path d="M449.0 93.0 L449.0 93.0 "/>
</g>
<g  style="" >
<path d="M449.0 93.0 L436.0 97.0 "/>
</g>
<g  style="" >
<path d="M449.0 93.0 L450.0 80.0 "/>
</g>
<g  style="" >
<path d="M449.0 93.0 L415.0 91.0 "/>
</g>
<g  style="" >
<path d="M449.0 93.0 L411.0 74.0 "/>
</g>
<g  style="" >
<path d="M449.0 93.0 L410.0 99.0 "/>
</g>
<g  style="" >
<path d="M472.0 349.0 L472.0 349.0 "/>
</g>
<g  style="" >
<path d="M506.0 504.0 L506.0 504.0 "/>
</g>
<g  style="" >
<path d="M506.0 504.0 L506.0 511.0 "/>
</g>
<g  style="" >
<path d="M506.0 504.0 L494.0 496.0 "/>
</g>
<g  style="" >
<path d="M506.0 504.0 L520.0 510.0 "/>
</g>
<g  style="" >
<path d="M506.0 504.0 L521.0 527.0 "/>
</g>
<g  style="" >
<path d="M506.0 511.0 L506.0 504.0 "/>
</g>
<g  style="" >
<path d="M506.0 511.0 L506.0 511.0 "/>
</g>
<g  style="" >
<path d="M506.0 511.0 L520.0 510.0 "/>
</g>
<g  style="" >
<path d="M506.0 511.0 L494.0 496.0 "/>
</g>
<g  style="" >
<path d="M506.0 511.0 L521.0 527.0 "/>
</g>
<g  style="" >
<path d="M286.0 247.0 L286.0 247.0 "/>
</g>
<g  style="" >
<path d="M411.0 258.0 L411.0 258.0 "/>
</g>
<g  style="" >
<path d="M254.0 323.0 L254.0 323.0 "/>
</g>
<g  style="" >
<path d="M254.0 323.0 L269.0 314.0 "/>
</g>
<g  style="" >
<path d="M308.0 315.0 L308.0 315.0 "/>
</g>
<g  style="" >
<path d="M308.0 315.0 L346.0 290.0 "/>
</g>
<g  style="" >
<path d="M308.0 315.0 L269.0 314.0 "/>
</g>
<g  style="" >
<path d="M346.0 290.0 L346.0 290.0 "/>
</g>
<g  style="" >
<path d="M346.0 290.0 L308.0 315.0 "/>
</g>
<g  style="" >
<path d="M269.0 314.0 L269.0 314.0 "/>
</g>
<g  style="" >
<path d="M269.0 314.0 L254.0 323.0 "/>
</g>
<g  style="" >
<path d="M269.0 314.0 L308.0 315.0 "/>
</g>
<g  style="" >
<path d="M421.0 404.0 L421.0 404.0 "/>
</g>
<g  style="" >
<path d="M438.0 397.0 L438.0 397.0 "/>
</g>
<g  style="" >
<path d="M438.0 397.0 L421.0 404.0 "/>
</g>
<g  style="" >
<path d="M438.0 397.0 L413.0 434.0 "/>
</g>
<g  style="" >
<path d="M413.0 434.0 L413.0 434.0 "/>
</g>
<g  style="" >
<path d="M413.0 434.0 L421.0 404.0 "/>
</g>
<g  style="" >
<path d="M413.0 434.0 L438.0 397.0 "/>
</g>
<g  style="" >
<path d="M494.0 496.0 L494.0 496.0 "/>
</g>
<g  style="" >
<path d="M494.0 496.0 L506.0 504.0 "/>
</g>
<g  style="" >
<path d="M494.0 496.0 L506.0 511.0 "/>
</g>
<g  style="" >
<path d="M494.0 496.0 L520.0 510.0 "/>
</g>
<g  style="" >
<path d="M494.0 496.0 L521.0 527.0 "/>
</g>
<g  style="" >
<path d="M520.0 510.0 L520.0 510.0 "/>
</g>
<g  style="" >
<path d="M521.0 527.0 L521.0 527.0 "/>
</g>
<g  style="" >
<path d="M521.0 527.0 L506.0 504.0 "/>
</g>
<g  style="" >
<path d="M521.0 527.0 L506.0 511.0 "/>
</g>
<g  style="" >
<path d="M521.0 527.0 L494.0 496.0 "/>
</g>
<g  style="" >
<path d="M521.0 527.0 L520.0 510.0 "/>
</g>
<g  style="" >
<path d="M322.0 113.0 L293.0 195.0 "/>
</g>
<g  style="" >
<path d="M293.0 195.0 L308.0 232.0 "/>
</g>
<g  style="" >
<path d="M308.0 232.0 L415.0 91.0 "/>
</g>
<g  style="" >
<path d="M415.0 91.0 L411.0 74.0 "/>
</g>
<g  style="" >
<path d="M411.0 74.0 L403.0 70.0 "/>
</g>
<g  style="" >
<path d="M403.0 70.0 L410.0 99.0 "/>
</g>
<g  style="" >
<path d="M410.0 99.0 L424.0 73.0 "/>
</g>
<g  style="" >
<path d="M424.0 73.0 L388.0 107.0 "/>
</g>
<g  style="" >
<path d="M388.0 107.0 L402.0 110.0 "/>
</g>
<g  style="" >
<path d="M402.0 110.0 L366.0 97.0 "/>
</g>
<g  style="" >
<path d="M366.0 97.0 L415.0 78.0 "/>
</g>
<g  style="" >
<path d="M415.0 78.0 L265.0 168.0 "/>
</g>
<g  style="" >
<path d="M265.0 168.0 L490.0 60.0 "/>
</g>
<g  style="" >
<path d="M490.0 60.0 L493.0 49.0 "/>
</g>
<g  style="" >
<path d="M493.0 49.0 L478.0 45.0 "/>
</g>
<g  style="" >
<path d="M478.0 45.0 L430.0 51.0 "/>
</g>
<g  style="" >
<path d="M430.0 51.0 L388.0 118.0 "/>
</g>
<g  style="" >
<path d="M388.0 118.0 L415.0 110.0 "/>
</g>
<g  style="" >
<path d="M415.0 110.0 L436.0 97.0 "/>
</g>
<g  style="" >
<path d="M436.0 97.0 L450.0 80.0 "/>
</g>
<g  style="" >
<path d="M450.0 80.0 L449.0 93.0 "/>
</g>
<g  style="" >
<path d="M449.0 93.0 L472.0 349.0 "/>
</g>
<g  style="" >
<path d="M472.0 349.0 L506.0 504.0 "/>
</g>
<g  style="" >
<path d="M506.0 504.0 L506.0 511.0 "/>
</g>
<g  style="" >
<path d="M506.0 511.0 L286.0 247.0 "/>
</g>
<g  style="" >
<path d="M286.0 247.0 L411.0 258.0 "/>
</g>
<g  style="" >
<path d="M411.0 258.0 L254.0 323.0 "/>
</g>
<g  style="" >
<path d="M254.0 323.0 L308.0 315.0 "/>
</g>
<g  style="" >
<path d="M308.0 315.0 L346.0 290.0 "/>
</g>
<g  style="" >
<path d="M346.0 290.0 L269.0 314.0 "/>
</g>
<g  style="" >
<path d="M269.0 314.0 L421.0 404.0 "/>
</g>
<g  style="" >
<path d="M421.0 404.0 L438.0 397.0 "/>
</g>
<g  style="" >
<path d="M438.0 397.0 L413.0 434.0 "/>
</g>
<g  style="" >
<path d="M413.0 434.0 L494.0 496.0 "/>
</g>
<g  style="" >
<path d="M494.0 496.0 L520.0 510.0 "/>
</g>
<g  style="" >
<path d="M520.0 510.0 L521.0 527.0 "/>
</g>
</g>
<g  style="fill:none;stroke:#FFC8C8;stroke-width:1.0;" >
<g  style="" >
<path d="M610.0 94.0 L610.0 94.0 "/>
</g>
<g  style="" >
<path d="M610.0 94.0 L611.0 95.0 "/>
</g>
<g  style="" >
<path d="M610.0 94.0 L617.0 109.0 "/>
</g>
<g  style="" >
<path d="M611.0 95.0 L610.0 94.0 "/>
</g>
<g  style="" >
<path d="M611.0 95.0 L611.0 95.0 "/>
</g>
<g  style="" >
<path d="M617.0 109.0 L617.0 109.0 "/>
</g>
<g  style="" >
<path d="M617.0 109.0 L610.0 94.0 "/>
</g>
<g  style="" >
<path d="M617.0 109.0 L611.0 95.0 "/>
</g>
<g  style="" >
<path d="M617.0 109.0 L590.0 147.0 "/>
</g>
<g  style="" >
<path d="M590.0 147.0 L590.0 147.0 "/>
</g>
<g  style="" >
<path d="M590.0 147.0 L617.0 109.0 "/>
</g>
<g  style="" >
<path d="M542.0 274.0 L542.0 274.0 "/>
</g>
<g  style="" >
<path d="M542.0 274.0 L561.0 270.0 "/>
</g>
<g  style="" >
<path d="M542.0 274.0 L571.0 310.0 "/>
</g>
<g  style="" >
<path d="M563.0 186.0 L563.0 186.0 "/>
</g>
<g  style="" >
<path d="M563.0 186.0 L590.0 147.0 "/>
</g>
<g  style="" >
<path d="M563.0 186.0 L602.0 185.0 "/>
</g>
<g  style="" >
<path d="M602.0 185.0 L602.0 185.0 "/>
</g>
<g  style="" >
<path d="M602.0 185.0 L590.0 147.0 "/>
</g>
<g  style="" >
<path d="M602.0 185.0 L563.0 186.0 "/>
</g>
<g  style="" >
<path d="M652.0 196.0 L652.0 196.0 "/>
</g>
<g  style="" >
<path d="M652.0 196.0 L649.0 203.0 "/>
</g>
<g  style="" >
<path d="M652.0 196.0 L683.0 212.0 "/>
</g>
<g  style="" >
<path d="M683.0 212.0 L683.0 212.0 "/>
</g>
<g  style="" >
<path d="M683.0 212.0 L689.0 224.0 "/>
</g>
<g  style="" >
<path d="M683.0 212.0 L652.0 196.0 "/>
</g>
<g  style="" >
<path d="M683.0 212.0 L649.0 203.0 "/>
</g>
<g  style="" >
<path d="M689.0 224.0 L689.0 224.0 "/>
</g>
<g  style="" >
<path d="M689.0 224.0 L683.0 212.0 "/>
</g>
<g  style="" >
<path d="M561.0 270.0 L561.0 270.0 "/>
</g>
<g  style="" >
<path d="M561.0 270.0 L542.0 274.0 "/>
</g>
<g  style="" >
<path d="M561.0 270.0 L583.0 244.0 "/>
</g>
<g  style="" >
<path d="M561.0 270.0 L604.0 271.0 "/>
</g>
<g  style="" >
<path d="M561.0 270.0 L571.0 310.0 "/>
</g>
<g  style="" >
<path d="M583.0 244.0 L583.0 244.0 "/>
</g>
<g  style="" >
<path d="M649.0 203.0 L652.0 196.0 "/>
</g>
<g  style="" >
<path d="M649.0 203.0 L649.0 203.0 "/>
</g>
<g  style="" >
<path d="M649.0 203.0 L683.0 212.0 "/>
</g>
<g  style="" >
<path d="M649.0 203.0 L689.0 224.0 "/>
</g>
<g  style="" >
<path d="M682.0 262.0 L682.0 262.0 "/>
</g>
<g  style="" >
<path d="M682.0 262.0 L688.0 262.0 "/>
</g>
<g  style="" >
<path d="M610.0 252.0 L610.0 252.0 "/>
</g>
<g  style="" >
<path d="M610.0 252.0 L583.0 244.0 "/>
</g>
<g  style="" >
<path d="M610.0 252.0 L641.0 287.0 "/>
</g>
<g  style="" >
<path d="M610.0 252.0 L628.0 278.0 "/>
</g>
<g  style="" >
<path d="M610.0 252.0 L604.0 271.0 "/>
</g>
<g  style="" >
<path d="M610.0 252.0 L619.0 296.0 "/>
</g>
<g  style="" >
<path d="M675.0 267.0 L675.0 267.0 "/>
</g>
<g  style="" >
<path d="M675.0 267.0 L682.0 262.0 "/>
</g>
<g  style="" >
<path d="M675.0 267.0 L688.0 268.0 "/>
</g>
<g  style="" >
<path d="M675.0 267.0 L688.0 262.0 "/>
</g>
<g  style="" >
<path d="M675.0 267.0 L689.0 224.0 "/>
</g>
<g  style="" >
<path d="M675.0 267.0 L652.0 306.0 "/>
</g>
<g  style="" >
<path d="M652.0 306.0 L652.0 306.0 "/>
</g>
<g  style="" >
<path d="M652.0 306.0 L642.0 313.0 "/>
</g>
<g  style="" >
<path d="M652.0 306.0 L662.0 307.0 "/>
</g>
<g  style="" >
<path d="M652.0 306.0 L675.0 267.0 "/>
</g>
<g  style="" >
<path d="M652.0 306.0 L641.0 287.0 "/>
</g>
<g  style="" >
<path d="M652.0 306.0 L629.0 327.0 "/>
</g>
<g  style="" >
<path d="M642.0 313.0 L642.0 313.0 "/>
</g>
<g  style="" >
<path d="M642.0 313.0 L652.0 306.0 "/>
</g>
<g  style="" >
<path d="M642.0 313.0 L641.0 287.0 "/>
</g>
<g  style="" >
<path d="M642.0 313.0 L629.0 327.0 "/>
</g>
<g  style="" >
<path d="M642.0 313.0 L628.0 278.0 "/>
</g>
<g  style="" >
<path d="M642.0 313.0 L662.0 307.0 "/>
</g>
<g  style="" >
<path d="M641.0 287.0 L641.0 287.0 "/>
</g>
<g  style="" >
<path d="M641.0 287.0 L628.0 278.0 "/>
</g>
<g  style="" >
<path d="M641.0 287.0 L682.0 262.0 "/>
</g>
<g  style="" >
<path d="M641.0 287.0 L610.0 252.0 "/>
</g>
<g  style="" >
<path d="M641.0 287.0 L675.0 267.0 "/>
</g>
<g  style="" >
<path d="M641.0 287.0 L652.0 306.0 "/>
</g>
<g  style="" >
<path d="M629.0 327.0 L629.0 327.0 "/>
</g>
<g  style="" >
<path d="M629.0 327.0 L652.0 306.0 "/>
</g>
<g  style="" >
<path d="M629.0 327.0 L642.0 313.0 "/>
</g>
<g  style="" >
<path d="M629.0 327.0 L641.0 287.0 "/>
</g>
<g  style="" >
<path d="M629.0 327.0 L628.0 278.0 "/>
</g>
<g  style="" >
<path d="M629.0 327.0 L662.0 307.0 "/>
</g>
<g  style="" >
<path d="M628.0 278.0 L628.0 278.0 "/>
</g>
<g  style="" >
<path d="M628.0 278.0 L641.0 287.0 "/>
</g>
<g  style="" >
<path d="M628.0 278.0 L610.0 252.0 "/>
</g>
<g  style="" >
<path d="M628.0 278.0 L675.0 267.0 "/>
</g>
<g  style="" >
<path d="M628.0 278.0 L652.0 306.0 "/>
</g>
<g  style="" >
<path d="M628.0 278.0 L642.0 313.0 "/>
</g>
<g  style="" >
<path d="M604.0 271.0 L604.0 271.0 "/>
</g>
<g  style="" >
<path d="M604.0 271.0 L561.0 270.0 "/>
</g>
<g  style="" >
<path d="M604.0 271.0 L583.0 244.0 "/>
</g>
<g  style="" >
<path d="M604.0 271.0 L610.0 252.0 "/>
</g>
<g  style="" >
<path d="M604.0 271.0 L641.0 287.0 "/>
</g>
<g  style="" >
<path d="M604.0 271.0 L628.0 278.0 "/>
</g>
<g  style="" >
<path d="M571.0 310.0 L571.0 310.0 "/>
</g>
<g  style="" >
<path d="M571.0 310.0 L542.0 274.0 "/>
</g>
<g  style="" >
<path d="M571.0 310.0 L561.0 270.0 "/>
</g>
<g  style="" >
<path d="M571.0 310.0 L601.0 340.0 "/>
</g>
<g  style="" >
<path d="M571.0 310.0 L616.0 315.0 "/>
</g>
<g  style="" >
<path d="M662.0 307.0 L662.0 307.0 "/>
</g>
<g  style="" >
<path d="M682.0 284.0 L682.0 284.0 "/>
</g>
<g  style="" >
<path d="M682.0 284.0 L682.0 262.0 "/>
</g>
<g  style="" >
<path d="M682.0 284.0 L675.0 267.0 "/>
</g>
<g  style="" >
<path d="M682.0 284.0 L652.0 306.0 "/>
</g>
<g  style="" >
<path d="M682.0 284.0 L642.0 313.0 "/>
</g>
<g  style="" >
<path d="M682.0 284.0 L641.0 287.0 "/>
</g>
<g  style="" >
<path d="M688.0 268.0 L688.0 268.0 "/>
</g>
<g  style="" >
<path d="M688.0 268.0 L688.0 262.0 "/>
</g>
<g  style="" >
<path d="M688.0 268.0 L682.0 262.0 "/>
</g>
<g  style="" >
<path d="M688.0 268.0 L675.0 267.0 "/>
</g>
<g  style="" >
<path d="M688.0 268.0 L689.0 224.0 "/>
</g>
<g  style="" >
<path d="M688.0 268.0 L662.0 307.0 "/>
</g>
<g  style="" >
<path d="M688.0 262.0 L682.0 262.0 "/>
</g>
<g  style="" >
<path d="M688.0 262.0 L688.0 268.0 "/>
</g>
<g  style="" >
<path d="M688.0 262.0 L688.0 262.0 "/>
</g>
<g  style="" >
<path d="M688.0 262.0 L675.0 267.0 "/>
</g>
<g  style="" >
<path d="M688.0 262.0 L689.0 224.0 "/>
</g>
<g  style="" >
<path d="M688.0 262.0 L682.0 284.0 "/>
</g>
<g  style="" >
<path d="M601.0 340.0 L601.0 340.0 "/>
</g>
<g  style="" >
<path d="M601.0 340.0 L642.0 313.0 "/>
</g>
<g  style="" >
<path d="M601.0 340.0 L629.0 327.0 "/>
</g>
<g  style="" >
<path d="M601.0 340.0 L571.0 310.0 "/>
</g>
<g  style="" >
<path d="M601.0 340.0 L616.0 315.0 "/>
</g>
<g  style="" >
<path d="M601.0 340.0 L619.0 296.0 "/>
</g>
<g  style="" >
<path d="M616.0 315.0 L616.0 315.0 "/>
</g>
<g  style="" >
<path d="M616.0 315.0 L652.0 306.0 "/>
</g>
<g  style="" >
<path d="M616.0 315.0 L642.0 313.0 "/>
</g>
<g  style="" >
<path d="M616.0 315.0 L641.0 287.0 "/>
</g>
<g  style="" >
<path d="M616.0 315.0 L629.0 327.0 "/>
</g>
<g  style="" >
<path d="M616.0 315.0 L628.0 278.0 "/>
</g>
<g  style="" >
<path d="M619.0 296.0 L619.0 296.0 "/>
</g>
<g  style="" >
<path d="M619.0 296.0 L610.0 252.0 "/>
</g>
<g  style="" >
<path d="M619.0 296.0 L652.0 306.0 "/>
</g>
<g  style="" >
<path d="M619.0 296.0 L642.0 313.0 "/>
</g>
<g  style="" >
<path d="M619.0 296.0 L641.0 287.0 "/>
</g>
<g  style="" >
<path d="M619.0 296.0 L629.0 327.0 "/>
</g>
<g  style="" >
<path d="M631.0 357.0 L631.0 357.0 "/>
</g>
<g  style="" >
<path d="M631.0 357.0 L642.0 313.0 "/>
</g>
<g  style="" >
<path d="M631.0 357.0 L629.0 327.0 "/>
</g>
<g  style="" >
<path d="M631.0 357.0 L601.0 340.0 "/>
</g>
<g  style="" >
<path d="M631.0 357.0 L616.0 315.0 "/>
</g>
<g  style="" >
<path d="M631.0 357.0 L666.0 379.0 "/>
</g>
<g  style="" >
<path d="M666.0 379.0 L666.0 379.0 "/>
</g>
<g  style="" >
<path d="M666.0 379.0 L670.0 383.0 "/>
</g>
<g  style="" >
<path d="M666.0 379.0 L670.0 389.0 "/>
</g>
<g  style="" >
<path d="M666.0 379.0 L631.0 357.0 "/>
</g>
<g  style="" >
<path d="M670.0 383.0 L666.0 379.0 "/>
</g>
<g  style="" >
<path d="M670.0 383.0 L670.0 383.0 "/>
</g>
<g  style="" >
<path d="M670.0 389.0 L670.0 383.0 "/>
</g>
<g  style="" >
<path d="M670.0 389.0 L670.0 389.0 "/>
</g>
<g  style="" >
<path d="M670.0 389.0 L666.0 379.0 "/>
</g>
<g  style="" >
<path d="M715.0 457.0 L715.0 457.0 "/>
</g>
<g  style="" >
<path d="M715.0 457.0 L716.0 488.0 "/>
</g>
<g  style="" >
<path d="M716.0 488.0 L716.0 488.0 "/>
</g>
<g  style="" >
<path d="M632.0 742.0 L632.0 742.0 "/>
</g>
<g  style="" >
<path d="M573.0 742.0 L573.0 742.0 "/>
</g>
<g  style="" >
<path d="M560.0 684.0 L560.0 684.0 "/>
</g>
<g  style="" >
<path d="M619.0 603.0 L619.0 603.0 "/>
</g>
<g  style="" >
<path d="M619.0 603.0 L639.0 559.0 "/>
</g>
<g  style="" >
<path d="M619.0 603.0 L615.0 624.0 "/>
</g>
<g  style="" >
<path d="M634.0 476.0 L634.0 476.0 "/>
</g>
<g  style="" >
<path d="M620.0 535.0 L620.0 535.0 "/>
</g>
<g  style="" >
<path d="M620.0 535.0 L639.0 559.0 "/>
</g>
<g  style="" >
<path d="M639.0 559.0 L639.0 559.0 "/>
</g>
<g  style="" >
<path d="M639.0 559.0 L619.0 603.0 "/>
</g>
<g  style="" >
<path d="M639.0 559.0 L620.0 535.0 "/>
</g>
<g  style="" >
<path d="M425.0 612.0 L425.0 612.0 "/>
</g>
<g  style="" >
<path d="M678.0 624.0 L678.0 624.0 "/>
</g>
<g  style="" >
<path d="M678.0 624.0 L659.0 643.0 "/>
</g>
<g  style="" >
<path d="M678.0 624.0 L662.0 639.0 "/>
</g>
<g  style="" >
<path d="M615.0 624.0 L615.0 624.0 "/>
</g>
<g  style="" >
<path d="M615.0 624.0 L621.0 627.0 "/>
</g>
<g  style="" >
<path d="M545.0 622.0 L545.0 622.0 "/>
</g>
<g  style="" >
<path d="M545.0 622.0 L538.0 627.0 "/>
</g>
<g  style="" >
<path d="M545.0 622.0 L589.0 633.0 "/>
</g>
<g  style="" >
<path d="M545.0 622.0 L518.0 598.0 "/>
</g>
<g  style="" >
<path d="M545.0 622.0 L564.0 621.0 "/>
</g>
<g  style="" >
<path d="M545.0 622.0 L520.0 617.0 "/>
</g>
<g  style="" >
<path d="M629.0 650.0 L629.0 650.0 "/>
</g>
<g  style="" >
<path d="M629.0 650.0 L619.0 603.0 "/>
</g>
<g  style="" >
<path d="M629.0 650.0 L615.0 624.0 "/>
</g>
<g  style="" >
<path d="M629.0 650.0 L659.0 643.0 "/>
</g>
<g  style="" >
<path d="M629.0 650.0 L662.0 639.0 "/>
</g>
<g  style="" >
<path d="M629.0 650.0 L589.0 633.0 "/>
</g>
<g  style="" >
<path d="M659.0 643.0 L659.0 643.0 "/>
</g>
<g  style="" >
<path d="M659.0 643.0 L662.0 639.0 "/>
</g>
<g  style="" >
<path d="M659.0 643.0 L678.0 624.0 "/>
</g>
<g  style="" >
<path d="M659.0 643.0 L615.0 624.0 "/>
</g>
<g  style="" >
<path d="M659.0 643.0 L629.0 650.0 "/>
</g>
<g  style="" >
<path d="M659.0 643.0 L621.0 627.0 "/>
</g>
<g  style="" >
<path d="M662.0 639.0 L659.0 643.0 "/>
</g>
<g  style="" >
<path d="M662.0 639.0 L662.0 639.0 "/>
</g>
<g  style="" >
<path d="M662.0 639.0 L678.0 624.0 "/>
</g>
<g  style="" >
<path d="M662.0 639.0 L615.0 624.0 "/>
</g>
<g  style="" >
<path d="M662.0 639.0 L629.0 650.0 "/>
</g>
<g  style="" >
<path d="M662.0 639.0 L621.0 627.0 "/>
</g>
<g  style="" >
<path d="M538.0 627.0 L538.0 627.0 "/>
</g>
<g  style="" >
<path d="M538.0 627.0 L545.0 622.0 "/>
</g>
<g  style="" >
<path d="M538.0 627.0 L518.0 598.0 "/>
</g>
<g  style="" >
<path d="M538.0 627.0 L564.0 621.0 "/>
</g>
<g  style="" >
<path d="M538.0 627.0 L520.0 617.0 "/>
</g>
<g  style="" >
<path d="M589.0 633.0 L589.0 633.0 "/>
</g>
<g  style="" >
<path d="M621.0 627.0 L615.0 624.0 "/>
</g>
<g  style="" >
<path d="M621.0 627.0 L621.0 627.0 "/>
</g>
<g  style="" >
<path d="M621.0 627.0 L625.0 621.0 "/>
</g>
<g  style="" >
<path d="M621.0 627.0 L619.0 603.0 "/>
</g>
<g  style="" >
<path d="M621.0 627.0 L629.0 650.0 "/>
</g>
<g  style="" >
<path d="M621.0 627.0 L659.0 643.0 "/>
</g>
<g  style="" >
<path d="M625.0 621.0 L621.0 627.0 "/>
</g>
<g  style="" >
<path d="M625.0 621.0 L625.0 621.0 "/>
</g>
<g  style="" >
<path d="M625.0 621.0 L615.0 624.0 "/>
</g>
<g  style="" >
<path d="M625.0 621.0 L619.0 603.0 "/>
</g>
<g  style="" >
<path d="M625.0 621.0 L629.0 650.0 "/>
</g>
<g  style="" >
<path d="M625.0 621.0 L659.0 643.0 "/>
</g>
<g  style="" >
<path d="M518.0 598.0 L518.0 598.0 "/>
</g>
<g  style="" >
<path d="M518.0 598.0 L545.0 622.0 "/>
</g>
<g  style="" >
<path d="M518.0 598.0 L538.0 627.0 "/>
</g>
<g  style="" >
<path d="M518.0 598.0 L520.0 617.0 "/>
</g>
<g  style="" >
<path d="M564.0 621.0 L564.0 621.0 "/>
</g>
<g  style="" >
<path d="M564.0 621.0 L545.0 622.0 "/>
</g>
<g  style="" >
<path d="M520.0 617.0 L520.0 617.0 "/>
</g>
<g  style="" >
<path d="M520.0 617.0 L545.0 622.0 "/>
</g>
<g  style="" >
<path d="M520.0 617.0 L538.0 627.0 "/>
</g>
<g  style="" >
<path d="M520.0 617.0 L518.0 598.0 "/>
</g>
<g  style="" >
<path d="M520.0 617.0 L564.0 621.0 "/>
</g>
<g  style="" >
<path d="M610.0 94.0 L611.0 95.0 "/>
</g>
<g  style="" >
<path d="M611.0 95.0 L617.0 109.0 "/>
</g>
<g  style="" >
<path d="M617.0 109.0 L590.0 147.0 "/>
</g>
<g  style="" >
<path d="M590.0 147.0 L542.0 274.0 "/>
</g>
<g  style="" >
<path d="M542.0 274.0 L563.0 186.0 "/>
</g>
<g  style="" >
<path d="M563.0 186.0 L602.0 185.0 "/>
</g>
<g  style="" >
<path d="M602.0 185.0 L652.0 196.0 "/>
</g>
<g  style="" >
<path d="M652.0 196.0 L683.0 212.0 "/>
</g>
<g  style="" >
<path d="M683.0 212.0 L689.0 224.0 "/>
</g>
<g  style="" >
<path d="M689.0 224.0 L561.0 270.0 "/>
</g>
<g  style="" >
<path d="M561.0 270.0 L583.0 244.0 "/>
</g>
<g  style="" >
<path d="M583.0 244.0 L649.0 203.0 "/>
</g>
<g  style="" >
<path d="M649.0 203.0 L682.0 262.0 "/>
</g>
<g  style="" >
<path d="M682.0 262.0 L610.0 252.0 "/>
</g>
<g  style="" >
<path d="M610.0 252.0 L675.0 267.0 "/>
</g>
<g  style="" >
<path d="M675.0 267.0 L652.0 306.0 "/>
</g>
<g  style="" >
<path d="M652.0 306.0 L642.0 313.0 "/>
</g>
<g  style="" >
<path d="M642.0 313.0 L641.0 287.0 "/>
</g>
<g  style="" >
<path d="M641.0 287.0 L629.0 327.0 "/>
</g>
<g  style="" >
<path d="M629.0 327.0 L628.0 278.0 "/>
</g>
<g  style="" >
<path d="M628.0 278.0 L604.0 271.0 "/>
</g>
<g  style="" >
<path d="M604.0 271.0 L571.0 310.0 "/>
</g>
<g  style="" >
<path d="M571.0 310.0 L662.0 307.0 "/>
</g>
<g  style="" >
<path d="M662.0 307.0 L682.0 284.0 "/>
</g>
<g  style="" >
<path d="M682.0 284.0 L688.0 268.0 "/>
</g>
<g  style="" >
<path d="M688.0 268.0 L688.0 262.0 "/>
</g>
<g  style="" >
<path d="M688.0 262.0 L601.0 340.0 "/>
</g>
<g  style="" >
<path d="M601.0 340.0 L616.0 315.0 "/>
</g>
<g  style="" >
<path d="M616.0 315.0 L619.0 296.0 "/>
</g>
<g  style="" >
<path d="M619.0 296.0 L631.0 357.0 "/>
</g>
<g  style="" >
<path d="M631.0 357.0 L666.0 379.0 "/>
</g>
<g  style="" >
<path d="M666.0 379.0 L670.0 383.0 "/>
</g>
<g  style="" >
<path d="M670.0 383.0 L670.0 389.0 "/>
</g>
<g  style="" >
<path d="M670.0 389.0 L715.0 457.0 "/>
</g>
<g  style="" >
<path d="M715.0 457.0 L716.0 488.0 "/>
</g>
<g  style="" >
<path d="M716.0 488.0 L632.0 742.0 "/>
</g>
<g  style="" >
<path d="M632.0 742.0 L573.0 742.0 "/>
</g>
<g  style="" >
<path d="M573.0 742.0 L560.0 684.0 "/>
</g>
<g  style="" >
<path d="M560.0 684.0 L619.0 603.0 "/>
</g>
<g  style="" >
<path d="M619.0 603.0 L634.0 476.0 "/>
</g>
<g  style="" >
<path d="M634.0 476.0 L620.0 535.0 "/>
</g>
<g  style="" >
<path d="M620.0 535.0 L639.0 559.0 "/>
</g>
<g  style="" >
<path d="M639.0 559.0 L425.0 612.0 "/>
</g>
<g  style="" >
<path d="M425.0 612.0 L678.0 624.0 "/>
</g>
<g  style="" >
<path d="M678.0 624.0 L615.0 624.0 "/>
</g>
<g  style="" >
<path d="M615.0 624.0 L545.0 622.0 "/>
</g>
<g  style="" >
<path d="M545.0 622.0 L629.0 650.0 "/>
</g>
<g  style="" >
<path d="M629.0 650.0 L659.0 643.0 "/>
</g>
<g  style="" >
<path d="M659.0 643.0 L662.0 639.0 "/>
</g>
<g  style="" >
<path d="M662.0 639.0 L538.0 627.0 "/>
</g>
<g  style="" >
<path d="M538.0 627.0 L589.0 633.0 "/>
</g>
<g  style="" >
<path d="M589.0 633.0 L621.0 627.0 "/>
</g>
<g  style="" >
<path d="M621.0 627.0 L625.0 621.0 "/>
</g>
<g  style="" >
<path d="M625.0 621.0 L518.0 598.0 "/>
</g>
<g  style="" >
<path d="M518.0 598.0 L564.0 621.0 "/>
</g>
<g  style="" >
<path d="M564.0 621.0 L520.0 617.0 "/>
</g>
</g>
</g>
</svg>
