<?xml version="1.0" standalone="no"?>
<!DOCTYPE svg PUBLIC "-//W3C//DTD SVG 1.1//EN" "http://www.w3.org/Graphics/SVG/1.1/DTD/svg11.dtd">
<svg width="100%" height="100%" version="1.1" xmlns="http://www.w3.org/2000/svg">
<g  style="" >
<path d="M740.253 373.46426 L749.178 373.347 L761.253 373.18832 L764.005 361.7527 L750.266 368.82593 L739.677 375.85776 L746.653 346.86975 L755.578 346.75247 L767.653 346.5938 M780.83246 373.46426 L789.7575 373.347 L801.83246 373.18832 L804.5845 361.7527 L790.8455 368.82593 L780.2565 375.85776 L787.2325 346.86975 L796.1575 346.75247 L808.2325 346.5938 M827.812 346.86975 L820.836 375.85776 L821.412 373.46426 L830.337 373.347 L842.412 373.18832 L845.164 361.7527 L848.81195 346.5938 M861.9915 373.46426 L861.41547 375.85776 L868.3915 346.86975 L877.31647 346.75247 L889.3915 346.5938 L885.74347 361.7527 L872.00446 368.82593 L861.41547 375.85776 M917.896 346.75247 L901.995 375.85776 M746.653 392.41818 L739.677 421.4062 L740.253 419.0127 L750.266 414.37436 L761.253 418.73676 L764.005 407.30112 L767.653 392.14224 M780.83246 419.0127 L780.2565 421.4062 L787.2325 392.41818 L796.1575 392.3009 L808.2325 392.14224 L804.5845 407.30112 L801.83246 418.73676 L789.7575 418.89542 L780.83246 419.0127 M821.412 419.0127 L820.836 421.4062 L827.812 392.41818 L836.737 392.3009 L848.81195 392.14224 L845.164 407.30112 L831.425 414.37436 L820.836 421.4062 M842.412 418.73676 L831.425 414.37436 M868.3915 392.41818 L861.41547 421.4062 L861.9915 419.0127 L870.9165 418.89542 L882.9915 418.73676 M908.971 392.41818 L901.995 421.4062 L902.571 419.0127 L911.496 418.89542 L926.323 407.30112 L917.896 392.3009 L908.971 392.41818 "/>
</g>
</svg>
