<?xml version="1.0" encoding="utf-8"?>
<!-- Generator: Adobe Illustrator 15.0.0, SVG Export Plug-In  -->
<!DOCTYPE svg PUBLIC "-//W3C//DTD SVG 1.1//EN" "http://www.w3.org/Graphics/SVG/1.1/DTD/svg11.dtd" [
	<!ENTITY ns_flows "http://ns.adobe.com/Flows/1.0/">
]>
<svg version="1.1"
	 xmlns="http://www.w3.org/2000/svg" xmlns:xlink="http://www.w3.org/1999/xlink" xmlns:a="http://ns.adobe.com/AdobeSVGViewerExtensions/3.0/"
	 x="0px" y="0px" width="800px" height="600px" viewBox="0.5 0.5 800 600" enable-background="new 0.5 0.5 800 600"
	 xml:space="preserve">
<defs>
</defs>
<polygon fill="none" stroke="#231F20" points="0.653,281.877 94.571,85.06 139.166,359.781 "/>
<polygon fill="none" stroke="#231F20" points="94.571,85.06 127.98,57.014 139.166,359.781 "/>
<polygon fill="none" stroke="#231F20" points="127.98,57.014 263.894,398.932 139.166,359.781 "/>
<polygon fill="none" stroke="#231F20" points="128.087,56.798 264,44.735 264,398.5 "/>
<polygon fill="none" stroke="#231F20" points="126.331,10.854 128.087,56.798 264,44.735 "/>
<polygon fill="none" stroke="#231F20" points="126.331,10.854 166.803,0.528 264,44.735 "/>
<polygon fill="none" stroke="#231F20" points="527.347,281.877 433.429,85.06 388.834,359.781 "/>
<polygon fill="none" stroke="#231F20" points="433.429,85.06 400.02,57.014 388.834,359.781 "/>
<polygon fill="none" stroke="#231F20" points="400.02,57.014 264.106,398.932 388.834,359.781 "/>
<polygon fill="none" stroke="#231F20" points="399.913,56.798 264,44.735 264,398.5 "/>
<polygon fill="none" stroke="#231F20" points="401.669,10.854 399.913,56.798 264,44.735 "/>
<polygon fill="none" stroke="#231F20" points="401.669,10.854 361.197,0.528 264,44.735 "/>
</svg>
