<?xml version="1.0" encoding="utf-8"?>
<!-- Generator: Adobe Illustrator 15.0.0, SVG Export Plug-In  -->
<!DOCTYPE svg PUBLIC "-//W3C//DTD SVG 1.1//EN" "http://www.w3.org/Graphics/SVG/1.1/DTD/svg11.dtd" [
	<!ENTITY ns_flows "http://ns.adobe.com/Flows/1.0/">
]>
<svg version="1.1"
	 xmlns="http://www.w3.org/2000/svg" xmlns:xlink="http://www.w3.org/1999/xlink" xmlns:a="http://ns.adobe.com/AdobeSVGViewerExtensions/3.0/"
	 x="0px" y="0px" width="640px" height="480px" viewBox="-142.606 -84.477 640 480"
	 enable-background="new -142.606 -84.477 640 480" xml:space="preserve">
<defs>
</defs>
<line display="none" opacity="0.5" fill="none" stroke="#333333" stroke-width="0.7008" enable-background="new    " x1="179.441" y1="80.459" x2="97.579" y2="26.267"/>
<line display="none" opacity="0.5" fill="none" stroke="#333333" stroke-width="0.7008" enable-background="new    " x1="188.666" y1="80.617" x2="273.989" y2="26.267"/>
<polyline display="none" opacity="0.5" fill="none" stroke="#333333" stroke-width="0.7008" enable-background="new    " points="
	179.441,80.459 179.441,38.95 188.666,37.548 188.666,81.77 192.695,294.602 186.789,310.146 186.789,310.146 "/>
<polyline display="none" opacity="0.5" fill="none" stroke="#333333" stroke-width="0.7008" enable-background="new    " points="
	212.087,0.901 188.666,38.95 179.441,38.95 157.784,0.901 "/>
<polyline display="none" opacity="0.5" fill="none" stroke="#333333" stroke-width="0.7008" enable-background="new    " points="
	179.441,38.95 157.784,0.901 147.159,18.195 "/>
<polyline display="none" opacity="0.5" fill="none" stroke="#333333" stroke-width="0.7008" enable-background="new    " points="
	188.666,38.95 212.087,0.901 224.41,18.195 "/>
<polyline display="none" opacity="0.5" fill="none" stroke="#333333" stroke-width="0.7008" enable-background="new    " points="
	84.896,51.632 18.02,206.713 112.568,258.599 132.168,189.621 "/>
<polyline display="none" opacity="0.5" fill="none" stroke="#333333" stroke-width="0.7008" enable-background="new    " points="
	132.168,189.621 112.568,258.599 119.577,277.964 186.789,310.146 "/>
<polyline display="none" opacity="0.5" fill="none" stroke="#333333" stroke-width="0.7008" enable-background="new    " points="
	186.789,310.146 248.623,278.776 254.385,258.599 237.092,195.657 "/>
<polyline display="none" opacity="0.5" fill="none" stroke="#333333" stroke-width="0.7008" enable-background="new    " points="
	237.092,195.657 254.385,258.599 350.664,210.172 285.519,53.361 "/>
<line display="none" opacity="0.5" fill="none" stroke="#333333" stroke-width="0.7008" enable-background="new    " x1="147.159" y1="18.195" x2="179.441" y2="80.459"/>
<line display="none" opacity="0.5" fill="none" stroke="#333333" stroke-width="0.7008" enable-background="new    " x1="189.541" y1="79.057" x2="224.41" y2="18.195"/>
<line display="none" opacity="0.5" fill="none" stroke="#333333" stroke-width="0.7008" enable-background="new    " x1="147.159" y1="18.195" x2="179.441" y2="38.95"/>
<line display="none" opacity="0.5" fill="none" stroke="#333333" stroke-width="0.7008" enable-background="new    " x1="224.41" y1="18.195" x2="188.666" y2="38.95"/>
<line display="none" opacity="0.5" fill="none" stroke="#333333" stroke-width="0.7008" enable-background="new    " x1="84.896" y1="51.632" x2="179.441" y2="80.459"/>
<line display="none" opacity="0.5" fill="none" stroke="#333333" stroke-width="0.7008" enable-background="new    " x1="285.519" y1="53.361" x2="188.666" y2="80.617"/>
<line display="none" opacity="0.5" fill="none" stroke="#333333" stroke-width="0.7008" enable-background="new    " x1="132.168" y1="189.621" x2="84.896" y2="51.632"/>
<line display="none" opacity="0.5" fill="none" stroke="#333333" stroke-width="0.7008" enable-background="new    " x1="186.789" y1="310.146" x2="132.168" y2="189.621"/>
<line display="none" opacity="0.5" fill="none" stroke="#333333" stroke-width="0.7008" enable-background="new    " x1="237.092" y1="195.657" x2="186.789" y2="310.146"/>
<line display="none" opacity="0.5" fill="none" stroke="#333333" stroke-width="0.7008" enable-background="new    " x1="285.519" y1="53.361" x2="237.092" y2="195.657"/>
<polyline display="none" fill="none" stroke="#333333" stroke-width="0.7008" points="179.441,80.459 97.579,26.267 147.159,18.195 
	"/>
<polyline display="none" fill="none" stroke="#333333" stroke-width="0.7008" points="224.41,18.195 273.989,26.267 188.666,80.617 
	"/>
<line display="none" fill="none" stroke="#333333" stroke-width="0.7008" x1="186.789" y1="310.146" x2="179.441" y2="80.459"/>
<line display="none" fill="none" stroke="#333333" stroke-width="0.7008" x1="157.784" y1="0.901" x2="212.087" y2="0.901"/>
<line display="none" fill="none" stroke="#333333" stroke-width="0.7008" x1="186.789" y1="310.146" x2="285.519" y2="53.361"/>
<line display="none" fill="none" stroke="#333333" stroke-width="0.7008" x1="84.896" y1="51.632" x2="186.789" y2="310.146"/>
<line display="none" fill="none" stroke="#333333" stroke-width="0.7008" x1="97.579" y1="26.267" x2="84.896" y2="51.632"/>
<line display="none" fill="none" stroke="#333333" stroke-width="0.7008" x1="273.989" y1="26.267" x2="285.519" y2="53.361"/>
<polyline display="none" fill="none" stroke="#333333" stroke-width="0.7008" points="135.493,264.788 186.087,127.419 
	237.092,262.451 236.51,227.406 350.664,210.172 "/>
<polygon display="none" fill="none" stroke="#333333" stroke-width="0.7008" points="186.087,127.419 96.219,42.948 184.936,91.446 
	273.026,42.248 "/>
<polyline display="none" fill="none" stroke="#333333" stroke-width="0.7008" points="186.087,127.419 184.936,91.446 
	145.629,22.265 162.599,12.588 207.183,11.888 227.392,19.958 184.936,91.446 "/>
<polyline display="none" fill="none" stroke="#333333" stroke-width="0.7008" points="96.219,42.948 132.168,230.677 
	112.568,258.599 135.493,264.788 132.168,230.677 18.02,206.713 "/>
<polyline display="none" fill="none" stroke="#333333" stroke-width="0.7008" points="227.392,19.958 273.989,26.267 
	273.026,42.248 "/>
<polyline display="none" fill="none" stroke="#333333" stroke-width="0.7008" points="145.629,22.265 99.608,26.267 96.219,42.948 
	85.573,53.361 "/>
<polyline display="none" fill="none" stroke="#333333" stroke-width="0.7008" points="285.519,53.361 273.026,42.248 
	236.51,227.406 254.385,258.599 237.092,262.451 197.601,249.367 186.087,127.419 176.7,249.883 135.493,264.788 "/>
<line display="none" fill="none" stroke="#333333" stroke-width="0.7008" x1="162.599" y1="12.588" x2="153.692" y2="7.562"/>
<line display="none" fill="none" stroke="#333333" stroke-width="0.7008" x1="207.183" y1="11.888" x2="216.833" y2="7.562"/>
<line display="none" fill="none" stroke="#333333" stroke-width="0.7008" x1="184.623" y1="12.588" x2="184.936" y2="91.446"/>
<polygon fill="none" stroke="#333333" points="150.398,0.901 139.773,18.195 177.237,38.164 "/>
<polygon fill="none" stroke="#333333" points="150.398,0.901 177.237,0.901 177.237,38.164 "/>
<polygon fill="none" stroke="#333333" points="139.773,18.195 90.193,26.267 177.551,101.453 "/>
<polygon fill="none" stroke="#333333" points="139.773,18.195 177.237,38.164 177.551,101.453 "/>
<polygon fill="none" stroke="#333333" points="177.551,101.453 89.834,43.948 90.193,26.267 "/>
<polygon fill="none" stroke="#333333" points="90.193,26.267 77.511,51.632 89.834,43.948 "/>
<polygon fill="none" stroke="#333333" points="89.834,43.948 177.237,310.146 177.551,101.453 "/>
<polygon fill="none" stroke="#333333" points="77.511,51.632 120.923,189.621 89.834,43.948 "/>
<polygon fill="none" stroke="#333333" points="120.923,189.621 177.237,310.146 89.834,43.948 "/>
<polygon fill="none" stroke="#333333" points="120.923,189.621 105.183,288.616 177.237,310.146 "/>
<polygon fill="none" stroke="#333333" points="105.183,288.616 77.511,51.632 120.923,189.621 "/>
<polygon fill="none" stroke="#333333" points="105.183,288.616 0.629,206.713 77.511,51.632 "/>
<polygon fill="none" stroke="#333333" points="204.389,0.901 215.014,18.195 177.551,38.164 "/>
<polygon fill="none" stroke="#333333" points="204.389,0.901 177.551,0.901 177.551,38.164 "/>
<polygon fill="none" stroke="#333333" points="215.014,18.195 264.594,26.267 177.237,101.453 "/>
<polygon fill="none" stroke="#333333" points="215.014,18.195 177.551,38.164 177.237,101.453 "/>
<polygon fill="none" stroke="#333333" points="177.237,101.453 264.953,43.948 264.594,26.267 "/>
<polygon fill="none" stroke="#333333" points="264.594,26.267 277.277,51.632 264.953,43.948 "/>
<polygon fill="none" stroke="#333333" points="264.953,43.948 177.551,310.146 177.237,101.453 "/>
<polygon fill="none" stroke="#333333" points="277.277,51.632 233.865,189.621 264.953,43.948 "/>
<polygon fill="none" stroke="#333333" points="233.865,189.621 177.551,310.146 264.953,43.948 "/>
<polygon fill="none" stroke="#333333" points="233.865,189.621 249.605,288.616 177.551,310.146 "/>
<polygon fill="none" stroke="#333333" points="249.605,288.616 277.277,51.632 233.865,189.621 "/>
<polygon fill="none" stroke="#333333" points="249.605,288.616 354.159,206.713 277.277,51.632 "/>
</svg>
