<?xml version="1.0" standalone="no"?>
<!DOCTYPE svg PUBLIC "-//W3C//DTD SVG 1.1//EN" "http://www.w3.org/Graphics/SVG/1.1/DTD/svg11.dtd">
<svg width="100%" height="100%" version="1.1" xmlns="http://www.w3.org/2000/svg">
<g  style="" >
<path d="M747.5 365.00433 L761.0 378.52432 L774.5 365.00433 L774.5 342.95883 L761.0 356.47882 L747.5 342.95883 L747.5 320.91333 L761.0 334.43335 L774.5 320.91333 M783.5 365.00433 L797.0 378.52432 L810.5 365.00433 L810.5 342.95883 L797.0 356.47882 L783.5 342.95883 L783.5 320.91333 L797.0 334.43335 L810.5 320.91333 M819.5 320.91333 L819.5 342.95883 L819.5 365.00433 L833.0 378.52432 L846.5 365.00433 L846.5 342.95883 L846.5 320.91333 M855.5 365.00433 L855.5 342.95883 L855.5 320.91333 L869.0 334.43335 L882.5 320.91333 L882.5 342.95883 L869.0 356.47882 L855.5 342.95883 M905.0 334.43335 L891.5 342.95883 M747.5 389.47565 L747.5 411.52115 L747.5 433.56665 L761.0 425.04114 L774.5 433.56665 L774.5 411.52115 L774.5 389.47565 M783.5 433.56665 L783.5 411.52115 L783.5 389.47565 L797.0 402.99567 L810.5 389.47565 L810.5 411.52115 L810.5 433.56665 L797.0 447.08664 L783.5 433.56665 M819.5 433.56665 L819.5 411.52115 L819.5 389.47565 L833.0 402.99567 L846.5 389.47565 L846.5 411.52115 L833.0 425.04114 L819.5 411.52115 M846.5 433.56665 L833.0 425.04114 M855.5 389.47565 L855.5 411.52115 L855.5 433.56665 L869.0 447.08664 L882.5 433.56665 M891.5 389.47565 L891.5 411.52115 L891.5 433.56665 L905.0 447.08664 L918.5 411.52115 L905.0 402.99567 L891.5 389.47565 "/>
</g>
</svg>
